<svg xmlns="http://www.w3.org/2000/svg" viewBox="0 0 404.8 472.79"><defs><style>.cls-1{fill:#f9f4eb;}</style></defs><title>Asset 1</title><g id="Layer_2" data-name="Layer 2"><g id="OBJECTS"><path class="cls-1" d="M222.05,150.87c.64.12.72,2,1.11,2.66.08.13.17.54.21.6s.74.34.95.69c.42.7-.28,1.78.23,2.43.81,1,2.22,0,2.8.94.48.78,0,1.37.72,2.08.41.39,1.62-.31,1.52.92s-3.82.72-4.72,1.12c.11-.05-1,.71-.93.66-.36.31-1.07-.05-.8.84s2.64.61,3.21,1.34c1.19,1.49-.7,2.58-2,2.71a10,10,0,0,0,3.84,3.73c.82.48,1.37.84,2.17,1.22.61.28,1.55.35,2,.87,2.42,2.83-3,1.82-3.84,2s-.78.92-1.75.69c-.24-.06-.07-1.25-1.19-.5-.2.13-.11.82-.34,1-.43.44-1,.49-1.46.82a5.08,5.08,0,0,0-1.4,1.41c-.91,1.23-1.45,1.29-2.73,2.06-.85.5-2.19,1-2.91,1.53-1.83,1.33-1.62,4.36-.71,6.23.57,1.18,4.24,3.84,1.33,5.15,1.45.89,3.15.68,4.8.74.52,0,1.76.29,2.22-.09.22-.19,0-1,.17-1a.69.69,0,0,1,.26-.21c1.12-.42,1.54,1.15,2.08,1.42,0,.43.17.62.49.58a.79.79,0,0,0,.76-.3c1,.08,1.58-1.12,2.3.45.32.68-.19,1.27.44,1.95a2,2,0,0,0,2.41.16c.2-.15-.11-.83.06-1s.53.07.65,0a1,1,0,0,0,1.06-.34,4,4,0,0,1,.35-.95c.62-.27,1.06-.69,1.78-.21,1.15.76.68,2.16,2.38,1.74,0,0,1.26-.64,1.43-.74a1.59,1.59,0,0,0,.95-.24,1,1,0,0,0,.05-.6c1-.58,2.25-.27,3.19-.71.54-.25.35-.51.75-.78a8.66,8.66,0,0,0,.91-.51,5.68,5.68,0,0,0,.94-1.7c.94-2.85,2-1,3.76-1.08,1,0,1-.4,1.78,0,1,.53,1.22,1.93,1.16,3,.47,0,1.29-.61,1.77-.27s.17,1.15.41,1.63c.34.68-.05.54.44,1s1.07.51,1.42.16c0,0,2.27-6.08,2.78-2.3a1.34,1.34,0,0,0,1.22-1.42c.66.06,1.52,1.24,2,1.11.06-1.45,1-1.1,1.47-2.26.23-.58-.09-1.33.14-1.9.31-.79.77-.4.95-1.57.16-1-.35-1.56.4-2.39.4-.45.93-.31,1.34-.87.28-.39.19-1.39.55-1.68s1.77-.11,2.26-.12c0-.06.54-1.93.54-1.93,1.39-.91,3.18,1,4.22,1.58,0-.65,1-1,1-1.43,0-.1-.65-1.23-.7-1.32-.23-.46-1-1.5-.67-2a1.44,1.44,0,0,1,.61,0h.73l0-.45c.58-.41,0-.8,1-1,.57-.12.92.28,1.38.49-.16-1-.17-2.56-1.15-3.26-.35-.25-1-.28-1.26-.43-2.15-1.21-.8-2.69-.82-4.59,1.13.33,1-.19,1.6-.68a27.74,27.74,0,0,0,2.39-2.34c1.31-1.37.81-1.07.54-3.06-.19-1.44.49-2-.87-2.71,0,.6-.85,3.07-1.37,1.24-.62.62-.11,2.95-1.13,3-.57,0-1.23-1.45-1.83-1.67.1.88-1.78.87-2.45,1.05a6.24,6.24,0,0,1-1.36.41c-.64,0-1.6-.65-2.19-.35-1.56.77-.3,1.62-2.6.81a8,8,0,0,0-1.48-.46c-.34-.35-.28-2.08-.58-2.66a14.63,14.63,0,0,0-1.74,1.47c-.91.69-2.24,1.5-3.1,1.27-.49-.13-1.41-1.11-2-1.38a11.74,11.74,0,0,0-2-.72A7,7,0,0,0,255,161c-.49,0-.95.42-1.66.27s-1.2-.8-1.94-.76-1.13.84-1.71,1.08c-.85.36-.29.3-1.14.19.06,0-1.73-1-1.57-.74-.93-1.31,1.42-4.33-1.67-3.42-1.15.33-1.69,1.51-2.75,1.87a3.5,3.5,0,0,1-1.7,0c-.65-.37-.37-1-.75-1.33-.7-.56-1-.12-1.73-.41-.52-.21-.89-1-1.53-1.41-1.2-.73-3.39.17-4.28-.75s.56-2.93,0-4.18c-.47-1-.23-.66-1.39-.91-.64-.13-1.34.08-2-.07-1.58-.37-1.74-1.51-3.17-1.9-.43-.12-.58-.44-1-.45.26.11-1.19,1-.9.9-.6.24-1.82,0-2.34.55S220.94,150.94,222.05,150.87Z"/><path class="cls-1" d="M278.91,150.29c.57,1.11.59.87,2,1,1,.09,2.19.73,3,.12,1.24-.92.1-1.37,2.14-1.31.18,0,.52.32.7.34s.4-.28.65-.25c.59.07.19.22.76.06.32-.09.23-.1.73.18,0-1,1.28-.87,1.06-2.15-.2-1.1-1.59-1.31-1.6-2.79a7.17,7.17,0,0,1,.67-2,6.49,6.49,0,0,0,.33-2.73c0-.93-.16-3.29-1.54-3.9-.52-.23-.7.17-1.15,0-.24-.07-.25-.55-.28-.55-.82-.05-1.38,0-1.46,1.24a5.59,5.59,0,0,1-1-.47c0,.09-.79,1.59-1,1.34-.71-1-.46,0-1.2.16a12.86,12.86,0,0,1-2.48.23c0,1,.86,1.3.63,2.53a12.28,12.28,0,0,1-1.11,2.8,4.2,4.2,0,0,0-.67,2.5c0,.51,0,2.85-.32,3.13C278.22,149.83,278.7,149.88,278.91,150.29Z"/><path class="cls-1" d="M278,187.59c.34-1.67.42-3.25-1-4.43-.93-.77-3.07-2-4.31-1.89a3.17,3.17,0,0,1-.69,2c-.52.34-1.64-.33-2.14,0-.31.22-.29,1.19-.51,1.54-.48.75-1.4.73-1.75,1.38-.26.46.22,1.28.12,1.75-.17.84-.61.91-.82,1.49s0,1.86-.41,2.49-1,.71-1.42,1.1c-1.05.88.72.59-.43,1-.71.24-1.12-.56-1.61-.9-.45,1.35-1.79.94-2.25,1-.24,0,0-.7-.57-.53,0,0-.79,1.11-.85,1.27-.54,1.46-.23,2.09-1.8,2-1-.07-1.19-.82-1.43-1.84-.58-2.41-.5.38-2.07-.82-.3-.23.14-.44-.09-.88-.42-.84.11-1-.83-1.75-1.16-.92.21-.18-1.6-.28a1.83,1.83,0,0,1-1.45-.1c0-.31-.16-.47-.38-.48-1.47,0-1.27.49-1.75,1.81-.12.33.06.91-.21,1.19s-.92.16-1.25.42-.23.88-.72,1.18-1.73-.11-2.4.2c-1,.44-1.3.91-2.34,1.38-.2.1-1.19.81-1.26.82a2.48,2.48,0,0,1-2.3-.6c-.38-.4-.32-1.3-.89-1.38-1-.15-.54.62-1,1a10.73,10.73,0,0,1-1.68.64c-.86,1.26.6,1.79-1.84,1.33a2.35,2.35,0,0,1-2.1-1.68c-.34-.83.44-1.4-.79-1.62s-1.3,1.33-2.61.24c-.66-.54-.29-1.17-1.45-1.47-.23,3.05-6.77.81-8.47.27-.07.73.31,1.18.25,1.85,0,.28-.35.87-.4,1.22s.22.8.09,1.35-1.29.28-.67,1.14c.24.33,1.65.17,2.09.69.73.85.31,1.73,1.27,2.61a11.27,11.27,0,0,1,1.89,1.83c.36.49.23,1.13,1.05.89,0,1.8.52,1.17,1.66,1.52,1.88.58,1.25,1.77,1.08,3.4-.14,1.39.52,1.1.84,2.09a18.2,18.2,0,0,0,.55,2.33c.86,1.76,2,1.67,3.74,1.76-.28,1-.22,2.79-.83,3.58-.71.94-2.95,1.08-2.81,2.74,0-.33,1.61,1.84,1.52,1.77a3.88,3.88,0,0,0,1.39.62c1.87.69,2.33,0,4-.65s3.28,0,4.89-.47c.82-.24,2.49-1.59,3.34-1.08.31.19.19,4.63,0,5.06a3,3,0,0,1-.92,1c1.52.32,2.2,1.18,3.6.25s1.73-1.65,3.69-1.12a13.17,13.17,0,0,0,3,.93c.49,0,.39-.49.76-.34.75.3.84.94.39,1.58,1.46.39.77-.14,1.4-.8-.22.22,1.14-1.56,1-1,.11-.51-.5-1.22-.51-1.75,0-.74.42-.79.34-1.69s-.87-1.8-1.2-2.6a9.89,9.89,0,0,1,4,.46c1.82.46,2.91.76,3.66,2.78.47-.07.46-.78,1-.94,1-.31,1.58.48,2.25,1s.05.92,1,1a2,2,0,0,0,1.34-.71c-.54-.2-.56-1.2-.85-1.62-.42-.61-1.78-.66-.28-1.39a2.19,2.19,0,0,0-2.47-1.5c.58-1.2-1.17-1.56-1.82-2.47s-1.24-2.36.44-3c-.56-.42-1.8,0-2.44,0a6,6,0,0,1-3.37-1.69s-.5,0-.54,0c-.25-.14-.25-.66-.63-.83-.75-.31-1.94.5-2-.76-.23-.12-.93.15-1.05-.08-.32-.64.23-1.6.42-2.15.27-.76.91-1.8-.52-2.41,1-.08,2,0,2.93-.07-.18-1,.1-2.37,1.85-1.37.47.27,0,.82.48,1.32,1.6,1.76,2.35-1,3.22-1.67a11.51,11.51,0,0,1,1.67-1.19c.71-.39,1.77-.35,2.38-.73.87-.53.44-.77.94-1.63a8.68,8.68,0,0,0,1-.84,1.63,1.63,0,0,1,1.38-.24c.76.11,1.39.61,2.22.61.06-1.31-.77-1,1.12-.83,0-.49.44-1,.43-1.39,0-.62-1.11-.73-.41-1.43,1-1,2.13.86,2.81.88,0-1.57.7-2.77,2.51-2.86-.77-1-.24-.84.65-1.84a2.69,2.69,0,0,0,.62-2.65,16.89,16.89,0,0,0-.32-1.83c1.09-.09,2.53.14,1.68-1.56-.4-.8-1.09-.29-1-1.5C277.45,187.62,277.93,187.83,278,187.59Z"/><path class="cls-1" d="M28.54,156.55c.86.19,2.26-.45,3.28.46s1.07,3.18.63,4.32c-.59,1.5-1.93,1.9-1.72,3.79a5.68,5.68,0,0,0,1.15,2.38l0,.58c-.18.49,0,.75.56.78a2.49,2.49,0,0,0,1.48,1.3c1,.44,3.34-.09,4.14.5,1,.73.5,2.29.66,3.42a14,14,0,0,0,2,5c.9,1.51,1.45,3,2.5,4.48.61.84,2.52,2.64,2.42,3.52a.73.73,0,0,0,.92.84c.06-1.69,2-1,3.33-.76.62.09,1.42,0,2,.15,1.15.24,1.13,1.46,1.86,1.68.21-1.7,1-.85,1.55-.68.27-.69,1.57-1.6,2.34-1.24.3.13.07,1.25.57,1.6,1,.66,1.62-.1,2.51.86a6,6,0,0,1,1.43,2.24c.61-.52.35-1,1.13-1.05A9.63,9.63,0,0,1,65.13,192c.05.06.19.39.23.44.31.34-.09.64.32.91.21.14,1.22-.1,1.46,0s1.46.72,1.48.71c.43-.18.34-1.55.78-1.9.28-.23,1.75-.47,2.1-.11s-.06,1.28,0,1.82a2,2,0,0,1,1.5.52c-.84.52-2,.81-2.13,1.92a1.35,1.35,0,0,0,1.65,1.62c-.75,1.68,0,1.05.66.92.89-.19.24-1.09,1.47-.44a1.88,1.88,0,0,1,.69,2.14c-.23.82-2,1.82-1.75,2.74.14.43.8.15,1,.41.68.79.36,1.25.85,2.08,1.79-.86,1.65.33,1.78,1.54.24,2.17.38.67,2.18,1.53.56.27.77.91,1.29,1.19.31.17.64.1,1,.2.86.24,1.5-.08,1.92,1,.1.25-.19,1.41-.1,1.51a8.47,8.47,0,0,0,2.4.1c.59,0,.6-.44,1.34-.1.46.21.64,1.08,1,1.4.18-.44.8,0,1.15-.09a14.14,14.14,0,0,0,3.16-1.21c1.63-1.1-.6-1.46-1.82-1.9.48-.36.4-.8.59-1.22.56-1.21-.33-.9,1.48-1.53,2.07-.71,3.69-1,3.85-3.42.07-.94-.31-1.94,0-2.87s1-1.19,1-2.08c0-.28-.38-.69-.46-1-.28-1.06,0-1.49-.78-1.86a8.45,8.45,0,0,0-2.2,0,10,10,0,0,0,.95-1.24c.23-.53,0-1.55.52-2-.87-.83-1,0-1.42-.93-.56-1.35.91-1.95,1.12-2.79s-.65-2.26,1.1-1.61c.07,0,.9,1.23,1.33,1.38-.1-.43-3.35-4.4-1.55-4.74,1.33-.25,1.13,2.87,3.07,1.79.89-.5.36-1.63,1.15-2.29.4-.33,2.24-.64,2.66-.26s.31,1.75.24,2.62c-1-.15-.46.44-.8.92.34-.48-.65,1.59-.57.83,0,.4-.71,0-.2.72.14.18,1.27.19,1.46.21,1.08.14,2.17.19,3.25.26a1.61,1.61,0,0,0,0,.69c.91-.44,1.94-1.61,3.06-1.27,1.35.4.12,1.6.94,2.59s1.16-.57,1.08,1.31c-.1,2.48-2.33.28-2.35,2.25,0,.62.4,0,.49.45.16.86-.2,2.06.1,2.84.46,1.17,1.6.53.42,1.62a3.56,3.56,0,0,1-1.9.75c-.51.06-2.22-.56-2.36-.49-.41.19-.58,1.57-.36,2s1.58,1.06,2.09,1.5c.28-2.66,1.46-.57,3.16-1.56,1.42-.83-.17-.74.33-1.79.14-.3.68-.16.92-.39.64-.63,1.11-.69,1.48-1.78.12-.35.09-1.12.34-1.31.89-.74,4.85.49,6,.79a1.46,1.46,0,0,0,0-.69c.86,0,1.57.17,1.86-.81.18,1.37,0,2.34,1.81,2,0,.35-.2,1,.27,1.14.24-.74,1.17-.56,1.45-1.18-1.44-.88-.62-4-1.13-5.36,1.14-.35,4.16,2,3.41-1.18-.45-1.87-3-1.08-3.7-3.3,3.76-.27-.43-1.74,1.09-3.56.39-.46,2.6,0,3.18,0a13,13,0,0,0,3.32-1.32,2.08,2.08,0,0,0-.14,1c2.36-.61.19-3.1.24-4.61-1.09,0-.64.93-1.24,1.36s-.14-.12-1,0a24.54,24.54,0,0,1-4.57.14c-1.36-.14-3-.48-3.72-1.73s-1-3.53-1.61-5.05c1.31.4.86-1.26,1.59-1.88s2-.34,2.82-1.3c1.37-1.59,1.79-2.52,3.83-3.35,1.48-.6,2.42-1.71,3.94-2.45.47-.23,1-.75,1.38-.92.9-.41,1.79-.29,2.66-.92.34-.37.7-.73,1.07-1.06a9,9,0,0,1,1.42-.36c.45-.32.44-1.14,1.12-1.51a4.49,4.49,0,0,1,1.92-.31h1.22c.55.16.8,0,.77-.63.11-.11.84-1.54.83-1.49.21-1.11,0-.88-.49-1.89-.41.31-1.83,3.66-2.3.73-.73,0-.88.76-1.7.67-.6-.06-.47-.81-1.19-.71s-.78.41-.59,1.12c-1.11.08-4-.62-3.47,1.38-2,.4-1.06-2.24-.1-2.87.28-.19.25-.3.52-.39.47-.15,1.06.08,1.54,0s.53-.72,1.48-.72c-.93-1.15-3.75.61-2.17-2.17.33-.59,1.28-.49.93-1.31-.16-.37-1.09-.2-1.07-.91.08,0,.79-.17.31-.26A.79.79,0,0,0,136,151c-.2-.41-1.56-.39-1.88-.57-1-.57-1.11-1.4-1.46-2.48a10,10,0,0,1-.63-2.41,4.38,4.38,0,0,1,0-1.49c.12-.41.92-1.05.85-1.3-1.35,1.21-2.21,1.85-4.12,1.55a5.86,5.86,0,0,0,0,1c-1.43-.44-1.2,1.82-2.59.8-1-.75-.13-6.5.78-7.09-.5-.21-1.18-1.27-1.75-1.14,0,1.22.18,1-.3,1.3-.33.23-1.16-.31-1.5,0s.07.79-.15,1c-.5.48-.69,1-1.78.27s-1.16-1.83-2.85-2.26c.24.79,0,1.43.41,2.38-.45,0-1.68-.25-2,0-.81.65.52,2,0,2.57a3.43,3.43,0,0,1-2.19-.21c-.27.47-.71.15-1.09-.25-.75-.76-.34-1.61-.15-2.44.45-1.91,1.28-3.1-.6-4.77-.47-.43-1.3-.64-1.7-1.11s-.38-1.12-.74-1.36a2.2,2.2,0,0,1-1.55-.27,1.32,1.32,0,0,1-.42-1,13,13,0,0,1-1.08-2.29,8.61,8.61,0,0,1-.24-2.82c0-.67.09-1.34.17-2a2,2,0,0,1-.67-.28c-.21-.7-.07-2-.33-2.56-.33-.78-.46-.47-1.11-.74,0,0,0-.49,0-.5-.68,0-1.23.66-1.92.68-1.08,0-1.83-1.11-2.81-.8.36-1.18-.89-2-2-1.94,0,0-.13.71-.11.86a4.81,4.81,0,0,0-3.2,0c.44-1.47-2.84-2.19.18-2.28a14.57,14.57,0,0,1,.08-2.3c.08-.57.65-.69.22-1.43s-.9.31-1.25-.58S95,111.39,95,111l.3-.16c.14-.44,0-.63-.56-.57-.07-.11-.77-.88-.88-1q.15-1.09-1-.66a4.24,4.24,0,0,1-1.33-.07,22.47,22.47,0,0,0-2.58-.46c-1.77-.09-1.33,0-1.92-1.27-.22-.46.2-1.22-.76-1.12-.71.07-.82,1.43-1.31,1.77-1.06.72-3-.13-4.26.29-1.76.58-1.53,2.62-2,4.24a17.72,17.72,0,0,1-1.88,5c-1.88,2.66-3.51,5.24-6.49,6.71-2.69,1.34-5.3,2.06-6.92,4.66-.32.52-.74.81-.89,1.36s.26,1.12,0,1.66c-.54,1.32-2.39,1.39-3.23,2.47s-.78,2.73-1.87,3.79a5.22,5.22,0,0,1-3.92,1.07c-1.83,0-3.62-.33-5.42.18-1.59.45-3.33,2.25-5.07,1.81-2.9-.73-1.67-4.31-3.73-5.32-3.27-1.62-5.5,2.74-7,4.68a20.55,20.55,0,0,1-3.08,3.62c-1.15.94-2.82,1.36-3.85,2.45s-.73,1.9-1.11,3.13c-.44,1.41-1.54,2.73-.52,4.19A13.08,13.08,0,0,0,28.54,156.55Z"/><path class="cls-1" d="M294,232.15a2.22,2.22,0,0,1-1.17-.11c-.11.3-.57,2.83-.25,2.9a.32.32,0,0,0-.47.21c1.47.13.89,1.18,1,2.36a10.79,10.79,0,0,0,1.53-2.17,4.46,4.46,0,0,0-.1-1.62A5.77,5.77,0,0,0,294,232.15Z"/><path class="cls-1" d="M283.55,235.66c0,.07-.77,1.08-.61,1.08,1.11,0,.87-.61,1.06-1.52.1-.47.54-.89.37-1.41C284,232.64,283.53,235.72,283.55,235.66Z"/><path class="cls-1" d="M295.63,231.63c-1.23-.1-.8,1.53-.5,2.22s.62,2.14,1.31,2.35c1.62.5.8-1.28.62-1.87S296.6,231.71,295.63,231.63Z"/><path class="cls-1" d="M296.64,230.73a1,1,0,0,0,.17-1.35c-.48-.55-1.66,0-2.25.07C294.43,229.91,296.08,231.08,296.64,230.73Z"/><path class="cls-1" d="M292.81,230.18c-.46.48-.82.26-1.16.63,1.36.39,2.53,1.24,2.68-.49.06-.71.33-1-.51-1.23C292.63,228.78,293.37,229.58,292.81,230.18Z"/><path class="cls-1" d="M293.29,231.52c-.25,0-1.18-.48-1.43-.26s-.45,1.09.12,1.14c.12,0,1.08-.55,1.3-.56A.5.5,0,0,0,293.29,231.52Z"/><path class="cls-1" d="M293,227.52a1,1,0,0,0,.85,1.28c1,0,1.47-1.58,1-2.14.13.16.4,0,.49.55a6.4,6.4,0,0,1-.3,2c.23-.94,2.58.43,1.6-1.71a3.78,3.78,0,0,0-1.86-1.3.91.91,0,0,0,0,.41.5.5,0,0,0-.33-.14A6.82,6.82,0,0,1,293,227.52Z"/><path class="cls-1" d="M285.83,234.4c-.62.32-1,2.3.21,2.07C286.14,235.68,285.48,235.34,285.83,234.4Z"/><path class="cls-1" d="M290.54,230.46c.11.38,1.82-.68,1.94-1,0,0,.65-.91.4-.95C291.74,228.3,290.09,229,290.54,230.46Z"/><path class="cls-1" d="M288.47,233.71c-.65.28-1.36,2.54.06,2.83C288.66,235.94,289,233.49,288.47,233.71Z"/><path class="cls-1" d="M194.24,296.14c.45-.16.52-.34.51-.85C194.26,295.32,194.27,295.72,194.24,296.14Z"/><path class="cls-1" d="M218.39,235.25l0-.05Z"/><path class="cls-1" d="M274.4,234.65c-.66-.31-1.54-.37-2-1-.35-.45-.1-1.84-.93-1.92-.21.52-1.28,1.76-1.91,1.63-1.77-.36-.71-1.87-1.14-2.9-.5-1.21-1.83-.58-2.73-1.21s-.6-1.43-1.81-1.14a1.71,1.71,0,0,0-1.78-2.08c-.72.09-.65,1.08-1.81.94.05-1.71-1.71-2.69-3.15-2.78a9.66,9.66,0,0,1-1.52-.27,3.07,3.07,0,0,0-1.67-.29,6.41,6.41,0,0,1,.95,2.14c.06.68-.38,1.11-.39,1.57,0,.89.65,1.65.35,2.42,0,.05-.66.13-.79.39s-.07,1.28-.39,1.52c-.53.4-2-.23-2.62-.38.19-.15.84-.78.73-1-.34-.55-.43.09-1.13,0-1.25-.17-2.35-1.08-3.65-1.11-1.84-.05-2.19,1.75-3.9,1.83-1.17,0-2.23-.87-3.43-.88.25-.69.84-1.06,1.12-1.68.49-1.07.32-3,.24-4.39-1.08,0-2.56,1.2-3.77,1.38-1.38.21-2.72-.08-4,.38-1.77.63-2.69,1.35-4.64.37-1-.51-1.47-2.31-2.67-2.26.22,2-.13,2-1.71,2.86a15.5,15.5,0,0,0-3.85,2.62c-.44.55-.23.81-.57,1.38s-.76,0-.85,1c-.06.74,1.37,1.32,1.24,2,0,.21-1.45,1.12-1.73,1.43a7.72,7.72,0,0,1-.51,1,8.16,8.16,0,0,1-.36,1.39c-.18.32-.78.63-1,1.34a3.67,3.67,0,0,0-.09,1.71c.09.43.95.81.66,1.4s-1.13,0-1.71.19c-1.75.55-.59,2.91-2,3.52-.45.19-2.74-.55-3.42-.56-1.2,0-3.75-.47-4.37.28-.78.92-.47,3-1.44,4.11-1.49,1.66-1.36-.38-2.4-.48-.1,1.79-.53,4.91.33,6.37.43.72,1,.69,1.08,1.75a11.77,11.77,0,0,1-.46,2.86c-.33,2.19-.12,2.94,2.38,3,1,0,1.27-.4,1.78.63a3.6,3.6,0,0,1,0,2c-.38.75-1.55,1.31-2,.73-.7-.86.58-1.74-1.32-1.61-.89.06-1,.72-1.21.78s-.22.36-.68.29c-1.18-.18-.38-1.68-.72-2.25-.72-1.22-3.39-.76-4.71-.85.07-.42.15-.68-.44-.7-1.13,0-.26-.07-.76.64-.84,1.19-.56,2.93,1,2.3,0,1.07.92.59,1.39,1.21,1,1.29-.47,2.94-.51,4.33a2.62,2.62,0,0,1,2.19,2.22c.24.91,0,2.07.18,3s.94,2.91.51,3.87c-.07.17.07.5,0,.68s-.57-.06-.62,0-.39.5-.44.57c-.35.49,0,1.19-.5,1.7-.25.26-.62.2-.88.39.08,0-.72.7-.6.65a5.66,5.66,0,0,1-1.41.28c2.25,1.76-.2,1.83-.91,2.27-.88.55-.72,2.33-1.69,2.91-.55.34-1.15.13-1.72.4-1.94.92-1.39,2.29-2.09,3.94a5.68,5.68,0,0,1-1.69,2c-.8.64-1.53.57-2.37,1.08.69-.15,1,.43,1.62.46a10.16,10.16,0,0,0,1.52-.23c1.13-.13,2.3-.29,3.33-.44a5.58,5.58,0,0,0,2.34-.48c.54-.38.33-.81,1.13-1.19a17.13,17.13,0,0,0,1.78-.69c.76-.44,1.32-1.1,2.35-.68.57.24.92,1.31,1.48,1.18s.18-1.28,1.14-1.26c0-.48.42-.83.41-1.12a1.14,1.14,0,0,1,0-2.16,3.32,3.32,0,0,1-.3-2.3c-.14.23,2.26-1.6,1.8-1.53.94-.15,1.35,1.1,1.74,1.65.23.34.48.32.62,1,.07.32-.06,1.65-.21,1.61s2.11-1.54,2.27-1.69c.39-.4-.29-.89.28-1.08,1.53-.51,1.5,1.71,2.85,1,.81-.44.47-1.91,1.43-1.95,0-.24-1.21-.86-1.23-1.55-.06-1.47.91-.72,1.24-1.34.45-.84-.28-1,.64-1.48,1.21-.6,3.44.14,3.31-1.85-.05-.67-1.66-.28-.55-1.42.64-.65,1.37-.23,1.83.33a6.32,6.32,0,0,1,.52-2c.32.46.34-.08.72.85.45-.72.28.14.77,0,.33-.13.22-1.53.23-1.87,1.36-.07.75,1,1.34,1.69,1,1.22,1-.29,2.17,1.32.87,1.24.37,1.59,1.62,2a11.66,11.66,0,0,0,1.19,0c.74.13,1.27.61,2,.78a3.69,3.69,0,0,0,3.66-1.82,1.78,1.78,0,0,1-.48-1.15.51.51,0,0,1,.53-.23c-.09.14.89-.51.79-.47a10.81,10.81,0,0,1,2.06-.72c-1.19-.5.85-2.15,1.7-1.41.35.31-.38,1.24.23,1.42.17.05,1.35-1.27,1.54-1.53.62-.86.89-2,1.59-2.79a18.37,18.37,0,0,1,2.55-2.1c1.2-1,4-3,.67-1.93.09-.51.72-.62,1-1-1.33-.42-1.21,1.88-2.82,1.92,1.11-.61.64-2,1.42-3a9,9,0,0,1,3.43-2.36c1.88-.45,2.38,1.06.86,2.26-1.05.82-2,.4-1.94,1.92.43.05,1.94-1,2.54-1.17a40.32,40.32,0,0,0,4.17-1.8c2.25-1,5.32-1,7.23-2.66,1.42-1.26,1.46-2.94,3.16-4.05.78-.51,2-.61,2.68-1.23s1.27-2-.1-2c-.28-1.4,1.22-1.92,2.12-2.54a6.8,6.8,0,0,0,2.73-3.17c-.74-.16-3,1.16-3.66,1.62.07-2.6,3.06-.79,2.18-3.34-.69-2-2.32-3.63-1.43-5.94a8.93,8.93,0,0,1,5.63-4.65c1.47-.25,3.65.89,3.81-1.46C276.14,235.58,275.35,235.12,274.4,234.65Z"/><path class="cls-1" d="M234.78,277.75l.19.07C235,277.75,234.89,277.74,234.78,277.75Z"/><path class="cls-1" d="M289.8,232.46c-.13.16,0,.91,0,1.09-.21,1.1.07,2.29-.06,3.4,1.46.13,2.19-3.24,1.83-4.29C291.35,232.06,290.2,232,289.8,232.46Z"/><path class="cls-1" d="M289.78,232.06c.27,0,1.53.18,1.57-.28C291.48,230.09,289.66,231.49,289.78,232.06Z"/><path class="cls-1" d="M153.43,182.64a.85.85,0,0,0,.42-.94C153.46,181.71,153.4,182.3,153.43,182.64Z"/><path class="cls-1" d="M180.84,184.58a.65.65,0,0,0-.4.24.21.21,0,0,0,.31.14C180.81,184.92,180.83,184.77,180.84,184.58Z"/><path class="cls-1" d="M131,239.79a5.65,5.65,0,0,0,.61,1.65,1,1,0,0,1,1-.7C132.67,239.58,131.89,239.88,131,239.79Z"/><path class="cls-1" d="M227.38,221.12c.85-.68,1.18-.6,1.59-1.45.23-.5.18-1.47.36-2.07a3.64,3.64,0,0,1-3.6-2,13,13,0,0,1-.36-1.7c-.25-.86-.77-.86-.9-1.22-.41-1.21.77-3.37,0-4.3s-1.56.2-2.35-.53a5.24,5.24,0,0,1-.72-1.35c-.18-.31-.6-.95-.83-1.3-.62-.94-1.66-1.13-2.32-2-1-1.24,0-2.52-2.07-2.71a3.26,3.26,0,0,1,.09.45,1.72,1.72,0,0,0-1.69.81c-.81,1.32.24,2.37-2,2.69a6.17,6.17,0,0,1-2.53-.13c-.54-.24-.49-.7-1-.92-1.22-.51-.86-.08-1.74.32-.38.18-.9,0-1.21.29s-.09,1.06-.57,1.48-.8,0-1.14.29.11.81-.42,1-.52-.42-.75-.45-1.52-.42-1.93-.44-1.5-.06-2.18-.07c.12-1.17-3-.82-3.77-.77s-1.72.51-2.59.09c-.45-.22.15-1.35-1.11-.93s.7,1,.86,1.3c.71,1.29-.72,1.51-1.18,2.42-.35.7-.47,1.49.53,1.75.16,0,1.11-.54,1.51-.49.57.08.88.49,1.3.81.77-.94,1.87.55,2.61,1.31,1.41,1.45,3.06,4.65.17,5.57-1.18.38-1.46-.15-2.16,1-.3.52-.24,1.2-.53,1.72s-.74.57-.9.92-.13,1.24-.39,1.67-.86.51-1.29.88-.68.88-1.18,1.3a4.51,4.51,0,0,1-2.83,1.1c-.71.1-1.41.19-2.21.34-2.09.37-1,0-1.43,1.91-.31,1.23,0,.49-.27,1-.62,1-.87-.59-1.36.82-.12.33.13.44.13.55-.08,1.91.37,1.55-1.74,1.25-.06,2.38-.33,1-1.1,2.3s1.93,3.84-1.26,4c.55,2.61.46,4.89-2.41,5.43,2.23.29,1,2.17-.23,2.86-.5.28-1.11.45-1.54.69-.14.07,0-.53-.32-.53a16.43,16.43,0,0,0,.23,2.3c.3.69.65.39,1.09.86,1.7,1.82.11,3.1-.16,5.16,2.18-.59,1.5.28,1.36,2.3-.09,1.37-.16,1.77-1.24,2.55-.92.66-1.81.33-1.65,1.85,2.13-.89,3.19,3.55.59,3.5.05.31.44.57.32.92s-.5.72-.53,1c2.65-1.91,2.77,1.4,3.62,2.7-.5-.76,1.36.73,1,.7.64.19,1.49-.1,2,.6.66,1-.23.91-.32,1.73a2.33,2.33,0,0,0,.82.27c-.62.42-.76,1.11-1.27,1.54a2.27,2.27,0,0,1-1.62.64c-1.46.09-1.68-.84-2.66-1.46-.72.75-2,1.36-2.58,2a6.54,6.54,0,0,0-.8,1.93c-.42,1.29-.2,1.38.37,2.56,1,2.12-2.18,1.83-.84,3l.27.25c-.17.07-.35.22-.51.3,1,.64.87,1.21,2.13,1.26.74,0-.1-.62,1.24-.3a7.64,7.64,0,0,1,1.45,1.34,10.24,10.24,0,0,1,1.83,3.22,5.63,5.63,0,0,1,.36.86c.12.76-.24,1.21-.19,1.84.6.22,1.08-.79,1.87-.6.46.11.24.44.35,1,1.54-.28.72-.3,1,.93.14.53.48,1,.66,1.61s-.1,1.38.08,2c.51,1.73,1.3-.16,2.55-.79.64-.33.81-.07,1.41-.46a6.07,6.07,0,0,0,1.68-1.88c.46-.93.12-2.33.57-3.08s2.16-1.18,2.91-1.55c1.28-.64,1.46-2.16,2.49-3.19.54-.53,1.52.34,1-1-.16-.4-1-.73-1.34-.9,2.28-.86,4.56-.82,4.25-4,2.26.75.44-4.19.37-5.42s-.16-3.87-2.13-3.24c-.16-1.84,1.32-3.35.19-4.71.14.18-1-.69-1.07-.81-.26-.08-.93.24-1.11,0-.64-.75-.36-2.71.12-3.5.81-1.34,2.25,0,3.74.09.88,0,2.73,0,3.2.91.14.27-.36,2.11.26,2.15.05-1.19,2.3-1.39,3.1-.9s.51.5.55,1.72c.84,0,1.07-1,1-1.65-.09-1.42-.83-.78-2.09-.95-3.52-.49-2-2.7-1.8-5.44.17-1.89-1.07-2.07-1.23-3.78-.09-1.07-.8-5.58.43-5.76,1.59-.24,1.07,2.64,2.41-.09.39-.8.53-3.17,1-3.68s-.22-.12,1.12-.28a30,30,0,0,1,4,.11c.65,0,2.5.8,3,.59.82-.38.39-2.08.73-2.71.55-1,1.62-.79,2.65-.78-.18-1.28-1-1.38-.56-3,.28-1,.84-1.07,1.24-1.72.19-.31.12-.8.26-1.19a3.74,3.74,0,0,1,1.87-2.21c-.39-.6-1.17-1.14-1.06-2s.65-.65.94-1.13.11-.8.62-1.44a9.2,9.2,0,0,1,2.14-1.51c.91-.63,3-1.21,3.36-2.22a1.39,1.39,0,0,0-.87-1.83C226.17,223.76,226.25,222,227.38,221.12Z"/><path class="cls-1" d="M60.83,227.14a11,11,0,0,0,1.28-.48c.3-.65-1.19-.34-1.46-.37a14.32,14.32,0,0,1,1.41-1c.73-.1,1.28.41,1.89.7,1.82.89,2.64.2,4.48.2-1.43.74-1.59,2-3.44,1.09-.7-.35-1-1.23-1.76-.8s-.24,1.73-.94,2.09c1.11.89-.87,2.33.52,2.85.92.35,2.3-1.13,3.54-.42a11.68,11.68,0,0,1-2.06.79c-.37.07-.9-.21-1.23,0-.65.44-1.08,2.62-.82,3.48.67.12,2.76-.1,2.82.76a12.18,12.18,0,0,0-2.56.12c.79.7.35,1.07,1.68.75.72-.17,1-1.13,1.81-.79-.57,0-2.42,2.39-2.66,3,0-.07-.28,1.58-.31,1.8s.18.76.16.93A4,4,0,0,0,63,243c.22,0,1.41-.19,1.46.28a1.13,1.13,0,0,0-.9.74c.6,0,1.21,0,1.82-.07.12.54-.78.38-1.16.66.5.24.33.93.35,1.35a12.65,12.65,0,0,1,1.74-.06c-.5,1.11-.38.81-1.72,1.2.54,1,.6,1.31,1.8,1.38a.53.53,0,0,1-.57.67c-.61,0-.79.38-.56,1.05-.27.9,0,1.86-.43,2.76,1,.14,1,.84.38,1.46s-1,0-1.49.32c-.25.18,0,1-.26,1.18s-1.06.24-1.16.48c-.37.85.19,1.47,1.07,1.47.23-1.14.88-.63,1.57-1.06s1.4-1.86,2.81-1.53c1.19.28,1.55,1.18.66,2-.22.18-1,.16-1.28.4,0,.52,1.54-.28,1.88-.21.59.12,0,.62.84.72a2.18,2.18,0,0,0,.92-.23c.25-.41.28,0,.55-.31a10.37,10.37,0,0,0,1-2.39c.21-.88,1.2-4.07-.36-4.11.7-1.3.24-1.77,1.69-1.33.08,0,.7.8.85.88s.87-.14,1.09,0,.1.68.28.81a1.44,1.44,0,0,0,1.86.28c1.62-.82-.11-.45.49-1.56.35-.66,1.45-.05,1.81-.5.17-.21,0-1.27-.06-1.52a3.69,3.69,0,0,0-1.68-2.56,6.08,6.08,0,0,0-1.32-.76c-.22-.11-.67.07-.87,0-.4-.25-.86-.7-.41-1.15.25-.26,1.86,0,2.4-.31,1.12-.55.55-.78,1.28-1.68.52-.63,1.07-.23,1.67-.62,0,0,1-.89.58-.71l.88-.22c1.29-1,2.36-.47,3.79-1.09a3.69,3.69,0,0,0-2.76-.77c-.8.1-1.28.78-2,.87s-2-1.13-2.07-1.68c-.07-.79.82-1.21.71-1.88s-1.27-.69-.89-1.52c.09-.21.13-.08.24-.2s1.29-.1,1.46-.18c.52-.23.41-.8,1.1-1-1.54-1.5.08-2.81-.85-4.38-.54-.92-1.21-1.1-.41-2.11s2.29-.71,3.32-.72c-.06-1.55-2.9-.37-3.23-2-.29-1.42.79-.52,1.65-.76s.75-1.07,1.43-1.47a4.16,4.16,0,0,1,1-.2c.31-.2.79-.12,1.17-.37.54-.36,1.55-1.65,1.37-2.4-.29-1.16-1.42-.36-2.11-1.52-.48-.8.19-1.83-.06-2.63-.4-1.33,0-.42-1-.89-.84-.4-.93.33-1.44-.76-.07-.14.3-.74.25-.83-.71-1.25-1.07-.56-2.29-1-.64-.21-.9-.94-1.44-1.21-2-1-2.53.37-2.8-2.35-.06-.56.28-.83-.23-1.17-.29-.19-.92.53-1.15.43-.55-.24-.36-1-.56-1.41a5.48,5.48,0,0,0-.77-1c-.64-.83-1.27-.51-.59-1.91.3-.63,1.37-1.11,1.45-1.86,0-.46,0-1.34-.57-1.51s-.44.56-1,.75c-.93.33-.77.34-1.47-.3a1.13,1.13,0,0,1,0-.77,1.6,1.6,0,0,1-1-.5,2.34,2.34,0,0,1,1.05-3.58c-1.31,0-.8-.62-.71-1.85-1.87-.26-.93.07-1.68,1-1.29,1.67-.82.57-2.08.32-.72-.14-1.83.25-2.37-.07-.29-.17,0-1-.14-1.31,0,0-1.71-1.26-1.67-1.26-.41.64-.75,1.19-1.53,1.39a2.57,2.57,0,0,0-.27-1.34c0-.06-1.29-1.84-1.21-1.79-1.13-.84-2.88.46-3-1.84-.63.07-2,2.29-2.54.75-.71.44,0,1.9-1.38.9-.84-.59-.41-1.05-1.55-1.37a22.16,22.16,0,0,0-2.86-.48l-1,.1-.78.09,0,.54s0,.22-.19.26a1.71,1.71,0,0,1-1.22,0c-.24-.14-.52-1-.61-1-.45-.18-1.54-.09-1.64.8.8.14,0,1.27.1,1.73.31,1.19.61.72,2,.8-.22,1.57-2.73,1.09-3.6,1.67-.33.23-.29,1.07-.48,1.17a4.55,4.55,0,0,1-1.69.08c-1.31-.07-2.07-.19-2.3-1.5-.28-1.62.51-1.77-1.54-1.73a7.57,7.57,0,0,0-2.84.76c-.71.26-1.56.25-2.24.54-.84.38-1.45,1.51-2.28,1.83a5.07,5.07,0,0,1-4.33-.73c-.61-.54-.8-1.34-1.55-1.68a9.78,9.78,0,0,0-2.53-.17c-.75,0-.87.2-1.57.27-.45,0-1.42.08-2,.08a15.7,15.7,0,0,1-2.16-.5c-1.1-.11-1.08.78-1.57-.73-.64-.1-1,1.12-1.1,1.54-.92,0-.31-1.9-1-2.22-.1,0-.69,3.36-.75,3.62-.09.48-.05,1.74-.45,2.11s-3,0-3.62,0c-2.11,0-4-.71-4.9,1.52-.59,1.38-2.45,5.15,1.12,4.16,1.08-.3.59-.39,1.18-1.09s.44-.78,1.45-1.19c.65-.26,1.18,0,1.89-.33.4-.21,1.08-1.2,1.58-1.06-.79,1.27-.55,1.26-2,2a16.19,16.19,0,0,0-2.15.9,3.17,3.17,0,0,0-.22,2.26c.16.36.7.26,1.11.74s-.5.65-.62.79c.35,0,1.73.25,1.86.77s-.72.74-.58,1.27c.57,0,.53-.76,1.08-.8,0,.52-.73,1.35-.55,1.64.46-.2,1-1.1,1.57-.9,0,.13-.87,1.42-1.18,1.39,1.66,2.14,4,3.12,6.18,4.81,1,.78,1.77,1.79,3,2.15.43.13.93,0,1.39.15,1.25.37-.67.53,1.37.73.34,0,1.54-.17,2.2-.1,1.73.2,2.33-.28,3.68-.64.74-.21,1.56.12,2.3-.19.43-.17.56-.74,1-.87.25-.08,3.68-.94,1.18-1-.12-1.13,1.08-.31,1.23-.37a.4.4,0,0,0,.34.34.62.62,0,0,0,.53-.8c.68-.39.94-1.08,1.94-.9.47.09.39,1.66,1.58.65a23.23,23.23,0,0,0-2.14,3.76c-.54,1.3-2,1.87-2.72,3.12a.8.8,0,0,0-.35.76c.11.66-.19.83-.89.51,0,0-1.22.22-1,.26-1.27-.24-1.15-1-2.72,0,1.43,0,.43,1.3-.33,1.74-1.16.67-.78-.42-1.68-.34s-1.69,1.5-2.44,1.54c-.17-1.1-1.59-.47-2.49-.42.35,0,.43.28.23.7-.36.11-.63-.4-.75-.38s-.86,0-1.18,0c-1,.07-1.64.75-2.47,1,.08-.47.73-.33.61-.9-1.51.12-.14-1.48.12-2-.19.16-2.37.5-2.59.24-.71-.8.9-.74.91-1.28a2.56,2.56,0,0,0-2.26,2.22c-.07,1.09,2,3.82,2.61,4.66a36.6,36.6,0,0,0,4.55,5.37c.81.78,1.7,1.5,2.46,2.32.59.64,1.38,2.46,2.43,2.34-1.68,1.66,10.55,11.08,12.75,11.39.55.07.78-.34,1.29-.35s.71.43,1.05.51a13,13,0,0,1,1.81.43c.54-.1,1.19-.74,1.73-.9,1.25-.38,2.92-.46,4.11-.95.44-.18.83-.78,1.4-1,.41-.16,1.61.19,1.56-.63-.42,0-1,0-1.19.55-.53-.78,1.21-1,1.57-1a12,12,0,0,0,3.29-.83,8.84,8.84,0,0,0,2.89-1.38,1,1,0,0,1,.83-.3l0-.89c.16-.24.6-.79.88-1.16.77-1,1.72-1.69,2-3a22.79,22.79,0,0,0,.38-3c.09-.89-.37-1.54-.44-2.3a4.58,4.58,0,0,1,1.46-3.33,1.88,1.88,0,0,1-1.17-.21,6.69,6.69,0,0,0,.75-1.44C59.87,226.42,60.33,227.15,60.83,227.14Z"/><path class="cls-1" d="M144.1,239.72a.15.15,0,0,1,.05-.06C142.26,239.24,141.25,239.06,144.1,239.72Z"/><path class="cls-1" d="M145.19,240a.67.67,0,0,0,.38.17c-.08,0-.06,0,0-.09l1.26.29a2,2,0,0,1,.66.48c2.29.35,2.55.31,1.85.09a4.38,4.38,0,0,0,1.33-.13c1.14-.27.87-.07,1.27-.79s-.29-.9.1-1.22,2.22.36,2.65.42c.06-.88.17-.07.95-.74,1-.81.12-1.24,1.65-.88l.44.73a1.21,1.21,0,0,0,1,.21c1.65.61,1.34,1.32,3.13,1.21a7.74,7.74,0,0,1,2.63,0,12.67,12.67,0,0,0,2.22.67c1.78.15,2.54-1.16,3.95-1.14a8.52,8.52,0,0,1,1.2.53c1.15.6,1.21,1.31,2.2,2.32s.87.66,1.91.65c.6,0,1-.49,1.24.06.32-.71,1.08-.78,1.36-2s-.18-2.49-.22-3.7a1.3,1.3,0,0,0,1.73-1.06c.12-.59-.4-1.16-.41-1.73,0-1.1.18-.7.47-1.49,0-.07.5-.21.6-.43s-.24-1.11,0-1.4,1.28.2,1.82.23c0-.85-.29-1.14-.08-2,.09-.39.33-.72.42-1.12a2.86,2.86,0,0,0,1.05.17c.12-3.06-.56-2.5,2.31-3,.31-.06.66-.36.95-.39s1,.31,1.34.25a19.87,19.87,0,0,0,2.18-1.16,12.91,12.91,0,0,0,1.15-1.28c.24-.24.71-.21.92-.51s0-.81.18-1.18c.32-.67.92-.92,1.26-1.54.22-.4.1-1,.29-1.38.3-.64,1.07-.8.85-1.61,1.58-.08,3,.15,3-1.82a3.39,3.39,0,0,0-1.26-2.53c-.36-.34-1.13-.54-1.34-.76-.42-.42-.43-.71-.85-.93.05,0-1.22-.48-1.41-.52-1-.19-1.46.6-2.36.16a1.66,1.66,0,0,1-.66-2c.27-.65,1.71-1.08,1.58-1.89-.11-.65-1.38-.46-1.52-1.25-.19-1.06,1.26-1.32,2-1.17.49.11.5.94.75,1a3.33,3.33,0,0,0,1.54-.09,15,15,0,0,1,4.63.31c.51.11,4.18.31,4.27,1.27,0-.19.07-.92.29-1,0,0,1-.24.94-.15.12-.11.39-.52.48-.6l.18-.77a1.19,1.19,0,0,1,1-.4c1.51-1.41-.35-1.54-.59-3-.08-.48,1-1.33,1.2-2a4.54,4.54,0,0,0,.12-.53c.06-.2.11-.41.17-.61.14-.43,0-.62-.48-.56a4.23,4.23,0,0,1-.31-1.29,1.09,1.09,0,0,0-.43.06,13.74,13.74,0,0,1,0-2c1.66.94,1.4-.29.45-1.06-.56-.45-.27-.54-1.23-.49s-2.17.31-3.33.3c.08,2.29-.2.67-1.62.86.31-1.33-.69-.57-.95-1.17-.11-.27.15-.89,0-1.12-.34-.45-.79-.07-1.39-.26-.39-.12-.26-.24-.28-.8-2.28.09-2.85-.09-2.78-2.44-.58,0-1.23.21-1.8,0-.27-.12-.67-.94-.74-1-.39-.13-1.47.24-1.74,0-.45-.41.57-1.62.05-2.18-.92-1-1.32,1-1.26,1.59a1.46,1.46,0,0,1-1.77-1.08c-.54,0-.79.42-.92.86-.06-.23-.25-1-.94-.68.6,1.16-.81,2-.08,3.12-1.25.09-2.56-.05-3.77,0-.68.06-1.78.65-2.58.35a4.93,4.93,0,0,0,.7-2.78c-.1.25-.28.48-.38.73.12-.78-.08-1.39-.91-1.24.3.41.09.28,0,.79-.39,0-.71.23-1,.11a8.67,8.67,0,0,1-1-.86,6.52,6.52,0,0,0-.43,1c-.14-.33-.2-.88-.69-.66.18.57.22,2.68-1,2-.39-.23.19-1.19-.13-1.41-.83-.6-.94.31-1.09.36-.57.2-.87.66-1.47.58,0-.83.81-.77,1.11-1.3a5.67,5.67,0,0,1,.19-1.23c.51-1.1,1.07-.46,0-1.81-.61-.81-1.13-.55-1.23-1.78-.64.12-1.31.3-1.31,1a4.15,4.15,0,0,0-1.44-.29c.25,1.35-1.32,1.21-2,1.63-.28.18-.28-.25-.47-.1-.57.47.16,1.28-.19,1.72s-1,.34-1.83.37a7.47,7.47,0,0,1-1.95,0c-.26-.07-.18-.6-.34-.8-.3-.35-.28.65-.27.79-1.08,0-1.67-.32-1.94,1.08-3-.14.44-2.62.53-3.26-1.16,0-1.37-.66-2.3-1.19.16.78,1,2.24.21,2.86a29.4,29.4,0,0,1-3.67.15,3.53,3.53,0,0,0-.34-1.58c-.69-.12-.85.81-1.38.77-1.05-.08,0-.26-.57-1-.15-.19-.84-.3-.88-.52-.23-1.11.5-1.71,1.54-1.81-.48-1.28-.07-1.28,0-2.32-.76.29-1.55,1.1-1.33,2-1.09-.29-1.15,1.62-2.53.86-.48-.27.36-.83-.56-.93s-.9,1.2-1.45,1.53c1.16.1,1.07.85,1.46,1.69,0,.32.05.64.08,1l.53.17a6,6,0,0,1,.32,1.73c.06.62-.08,1.05.25,1.6.19.32.87.07,1,.35.63,1.25,0,2.61,0,4,1,0,1.55-.53,2.11-.08a2.41,2.41,0,0,1,.53,2.31c-.11,0-.47-.11-.52,0a4.9,4.9,0,0,1,1.54,1.5c-.9.4-.47,1.27-.92,1.71a11.29,11.29,0,0,1-2.67,1.45c.12-.56-.1-1-.81-.88a1.42,1.42,0,0,0,0,.71c-1.05,0-1.1-.74-1.62-1.31-.28-.31-.15-.66-.48-1s-1,0-1.42-.51c-.45.46-.29,2.8-1.86,1.56-.37-.3-.08-.7-.13-1.32s.22-1-.23-1.47c-.24-.26-.81-.09-1-.3-1.2-1.46-.07-.9,0-2.09.07-1.63-1.63-3.12-1.41-4.66,1.85.18,2.25-1.66,2.3-3.11.41-.05.53.07.74-.41s.51-.17.44-.81-.66-.38-.87-.82c-.7-1.41-.53-3.45,1.13-3.44,0-2.3,1-1.49,2.7-1.84.76-.15,2.7-.62,2.8-1.23,0-.27-.57-.93-.58-1.34,0,.13.42-1.18.27-.82.09-.42.32-.6.71-.53.25-.53.47-1.08.69-1.63.15-.29.43-.55.6-.87.52-1,.71-2.15,1.13-2.95.64-1.24,1.41-1.81,1-3.5a22.28,22.28,0,0,0-1.08-2.27c-.24-.67.17-.89-.31-1.4-.17-.18-1.32-.87-1.52-1a2.9,2.9,0,0,0-1.74-.8c-.27,1.93-7.48-2.67-7.85,2,0,.27-1,.34-1.77.36a4.53,4.53,0,0,0-2.7.56c-.3.2-.16.75-.37.93-.48.41.29-.35-1,.42a63.73,63.73,0,0,1-5.9,3.13,13.63,13.63,0,0,0-2.75,2c-1,.7-2.13.59-3.11,1.4a13.37,13.37,0,0,0-1.64,2.18c-.78,1-1.22.88-2.28,1.43-1.29.67-.41.14-1.09,1.09,0,0-.73,1-.72,1-.09.83.77,1.93,1,2.69.64,2.17,1.24,2.67,3.6,2.94,1.78.2,3.49-.59,5.06.09.22-.75,1.34-2.3,2.25-1.48.49.43-.59,1.82.7,1.55,0,.66.45,3.15,0,3.76-.26.36-1.5.34-2.09.44a1.94,1.94,0,0,0,0-.76,6.58,6.58,0,0,1-2.57.93c-.55.05-2.41-.31-2.71.08-.89,1.12,2.56,3.47-.82,3.47.77,1.81,3.32.42,3.47,3,0,.74-.23,2-1,2.26-1,.35-1.36-.79-2.22-.83.19,1,0,2,.22,3,0,.21.67,1.47.67,1.47a2,2,0,0,1-1.34,1.72c-.66.29-.35.36-1.38-.18,0-.51-.24-.72-.82-.63a1.78,1.78,0,0,0-.75-.16c-.23-.12-.14-.66-.15-1-.84-.2-1.07.25-.75,1a16.34,16.34,0,0,0-5.18-1.17c-1.72.19-.82,1-1.77,2.24-.63.84-.87.75-1.81,1.07.31,1.21.59,1.88-.69,2.21-.52.14-1.24-.16-1.78-.05-1.44.27-.79.48-1.35,1.81-.42-.26-.71-.69-1.1-.94s-1.42-.55-1.49-.62c-.32-.31-.3-.53-.33-1.24-.08-1.78.27-1.91,1.7-1.77a4.15,4.15,0,0,0,3.41-.68c-1.8-.15-.62-2.46-.83-3.42-.07-.31-.64-.26-.67-1.06a1.66,1.66,0,0,1,1.11-1.5c.26-.1.75.79,1.12.4a3.14,3.14,0,0,0,.11-1.62c-.17-.22-1.06,0-1.31-.28s0-2.1,0-2.39c-1.1,0-1.52.58-2.41.94-1.46.6-.7-.12-1.32-.27-.83-.18-2.45-.12-3.39-.41-.33-.11-.94,0-1.21-.35-.87-1.06.4-1.09.7-1.7.16-.34,0-.81.17-1.2.33-.63.78-.38.68-1.25-.14-1.19-1.63-1.17-2.36-.21-.62.81.09,1.64-1.3,2.1-1.78.58-1.73-1-2.72-1.71-.52,1.27,2.71,3.71,1.86,4.53-.45.45-2.44-1.12-2.46-1.47a.5.5,0,0,0-.3,0c-.23.29.46,1,.42,1.36-.12,1-.27.29-.67,1s-.59-.21-.59.88c0,1.48-.07.06.67.87.53.58.7.71.75,1.09a4,4,0,0,1-.89,2.38c2,0,1.9-.39,2.24,1.38.17.91.84,1.79.62,2.73s-1,1.37-1,2.5c-.13,1.8.5,3.39-1.26,4.59A16.19,16.19,0,0,1,93,208.63c-1.79.78-.42.7-1.32,2,1.74.62,3.09,1.54,1,2.66A22.7,22.7,0,0,1,90,214.51c-.09,0-.1.13-.22.16a8.83,8.83,0,0,0-1.43.1c-.9-.36-1.51-2.74-2.5-1.16a7.34,7.34,0,0,0-.07,2.12c.18,1.19.24.83,1,1.39.55.39.63-.31,1.18.53.28.44,0,1.32-.15,1.75a5.21,5.21,0,0,1-1.3,1.7c-.57.42-1,.27-1.57.55s-.55.63-1.18,1.11c-.89.66-1.34.41-2.35.45-.06,1,4.7,1,3,2.86-.35.38-3.54-.49-3.6.92,0,.41,1.17,1.4,1.28,2,.15.95-.51,1.32-.28,2.37.39,1.76,1.26.68,2.2.77.59.06,1.39.61,2,.57,1-.08.57-.61,1.17-.86,1.75-.71,1.14.45,2.57.93a.25.25,0,0,0-.29.27L90,233c.21,1.15,0,2.49.88,3.41s1.63.4,2.76.31c2.29-.18,3.36.1,4.47,2,1,1.65,1.61,1.93,3.59,2s4,0,6.07-.14a6.29,6.29,0,0,1,4.28,1c1,.73.69,1.81,1,2.9s-.26,1,1.35,1a8.59,8.59,0,0,0,2.15,0c.26-.24-.21-1,0-1.23.46-.37,1.55.14,2.17-.28.83-.57.72-.88-.34-1,.73-1.41,3.34-2.29,2.65-4,.91,0,.73-.78,1.16-1.06a7.28,7.28,0,0,1,4.55-.68c1.17.12.74,0,1.47-.45s1.19-1.12,2.4-1c2,.28,2.17,2.54,3.35,3.88a1.73,1.73,0,0,0-1.32,1c.48,0,.43.46.75.65s.61,0,1,.09a8.15,8.15,0,0,0,5.08-.82c.53.16.81,0,.87-.47a1.75,1.75,0,0,1,.71-1c1-.62,1.51.42,2.3.21.56-.15.89-1.27,1.67-.86.49.25-.09.93.07,1.33l-.64-.15v.08Zm1.45-.33c.5,0,.88.66,1.29.85l.26.11c-.72-.19-1.63-.4-2.51-.6C146,239.85,146.66,239.64,146.64,239.64Z"/><path class="cls-1" d="M74.9,326.36c.36.18.67.55,1.1.75,1.44.7.94.07,1.84-.45,1.84-1.05,1.82-1.64,3.69-1.36,0-1.35.13-.61.5-1.3,1.3-2.38-.08-.22-.75-2s2.88-.25,1.68-2.51c-.89-1.67-1.16-.14-2-1s.42-1.83.34-2.15c-.19-.69-2-1.46-1.36-2.41.3-.48,1,.27,1.37.4,0-.9.66-.88,1.37-1a1.36,1.36,0,0,1,2.71,0c.32,0,.64-.12,1-.2-.88-1.08,1.82-1.89,2.42-2.12,1.18-.45.93-.31,1.65-1.26.43-.56,1.13-1.61-.43-1.85,1.31-.13,2.82-.36,4,.32.82.46,1.12,1.35,2.17.75.17-.1-.32-.86,0-1.06,1-.79,3.37,0,4.51-.06,0-.8,0-1,.81-.92s1,1.66,1-.17a13.37,13.37,0,0,0-.31-1.37c-.09-1.19.42-1.18.43-2.1s-.48-1.76-.27-2.85c.24-1.26-.15-1.58,1.57-.8.54.25.31.62.9.78a2.69,2.69,0,0,0,.75-.08c1.18.32.88.73,1.76,1.28s2.34-.11,2.38-.09c1.41.55,3,.41,4.22,1.38.29-.51-.51-1.29-.56-2a15.06,15.06,0,0,1,0-1.91c.56-1.38,1.13.36,1.87-.4.17-1.12.63-2.1,1.87-2.29,1.57-.23,1.28.34,2.07,1,.14-1.05,1-.89,1.44-1.63-.71-.57-1.26-2.44.17-2.14-.16.93.81.9,1.47.5s.25-.61.6-1.3c.09-.17,1.62-1,0-1.19.43-2.11,2.53-1,3.67-1.51.8-.34,1.7-1.69,2.36-2.28s.37-.64,1-.74c1-.17,1.49,1.13,1.7-.3a12.05,12.05,0,0,0-.47-2.41c.93.33.65-.43.77-.46.42-.11,1.62.11,1.89-.07s.56-1.76.89-2.29,2.15-1.61,2.19-2.19c-.89-.05-1.26-1-1.67-1.85-.6-1.24-.26-.72.39-1.77a10.36,10.36,0,0,0,.88-2.24c.22-.73.64-1.9,1.84-1.31.25.12,0,.53.3.77s1.34,1.32,2.14.53c-.83-1.26-1.88-1.5-.4-2.06s2.52-.6,2.32-2.67a7.77,7.77,0,0,0-.2-1.18c.16-.67,1-.95,1-1.64s-1.1-1-1-1.66c0-.08.74-.54.87-.85a6.13,6.13,0,0,0,2.09,1.43c.81.41.55.41,1.48.52.44.05,1.08-.06,1.56,0,2.73.19,2.64-.13,2.72,2.44.37,0,1.76-.34,2,0,.34.58-.84,1.38-.79,2.09,1.82-.07,2.09-.4,3.66.49-.28-.68.18-2.2.83-2.37,0,0,.54.78.36.26.24.71,1.15.53,1.78.54-.08.58,0,.63.62.47-.15.55.09,1.19.64,1.16-.1,0,.64-2.3,1.22-.64a1.89,1.89,0,0,0,.42-.62,1.85,1.85,0,0,0,.83-.1c1.4-.34,1.82.26,2.83,1,1.53,1.16,2.38.84,2.12,3.16a13.21,13.21,0,0,1-.48,2.9c-.15.37-1,1.06-1,1.5.06.63.64.23.86.72.37.86,1.27,2.78.27,3.17.54,1.31,2.89,1.88,4.09,1.42-1.68-.91,1.52-1.91,1.5-2.54,0-.1-1-.89-1.07-1a2.77,2.77,0,0,1-.21-1.27c.08-.92.53-1,.78-1.63s0-1,.5-1.6c.36-.44.21.22.86-.29s1-1.17,1.56-1.46c1.05-.51.62-.23,1.66.39,1.48.88,2.74.69,3.35-.82a12.73,12.73,0,0,1,.36-1.69c-.3-.79-1.42-.37-2-.61a5.74,5.74,0,0,1-1.5-1.83c-1-1.75-.89-2.42-3-1.31-.52-.71,0-1.4.17-2,.06-.27-.47-.82-.19-1.18.09-.1.59.06.64,0,.34-.41.52,0,.8-.67a3.88,3.88,0,0,0,0-1.23,1.39,1.39,0,0,0-2-.43,2.38,2.38,0,0,1,1-2.68c.57-.34,1.32-.3,1.75-1.13s.19-2.47.22-3.27c-1.24.25-1.34.71-1.47-.41-.26-2.11,1.62-2.56.22-4.56-.42-.59-.87-.21-1.21-1.2,0-.09-.3-2.58-.28-2.6.22-.3,1.18-.7,1.38.19,1.08-.78,2.94-1.34,1.34-2.44-.7-.48-1.79-.16-2.58-.82s-.87-1.6-1.47-2.16a3.84,3.84,0,0,0-2.11-.86c-.51,0-1.4.81-2.36,1-2.09.38-3.66-.91-5.68-.7-1.14.13-1.57.29-2.47-.28-.22-.14-.12-.56-.41-.73s-.74,0-1.09-.13a16.59,16.59,0,0,1-1.76-1.24c-.55.14-.25.82-.52,1.2s-1.26-.15-.63.77c-1,0-2-.42-3-.47,0,.89.26,1.45-.21,1.82-.69.56-3.44.45-4.18.13a2.74,2.74,0,0,1-.57-.44l-1.57-.26a.58.58,0,0,1-.82.22.57.57,0,0,1-.56-.51c-.06,0-.07-.24-.08-.47l-.36-.08c-.4.33-.79-.06-1.48,0-1.62.06-.87.28-1.93,1.22a12,12,0,0,1-3,1c-1.68.49-3.1,0-4.64-.05-.32,0-1.26-1.15-.85.46-1.43-.08-1.58-2-2-3,.52,0,2.21.42,2.51-.32.47-1.15-1.73-2.64-2.7-2.53-1.49.15-.87.92-1.84,1.5-.75.43-1.28-.31-1.87.64.69-2.05-2.51-.55-3.25-.11-1.27.74-1.33,2.08-2.56,3.11a3.48,3.48,0,0,1-.28.24c-.32.28-.91.32-1,.87,0-.24.69.79.67,1.08-.09,1.05-2,1.17-2.83,1.13.34,2-4.24,1.57-4.84.39-.1-.19.25-.53.22-.89-.16-1.84-.34-1.66-1.56-2.52-2-1.39-4.13-.17-6.55-.51-1.51-.22-3.89.25-5.28-.4-1.08-.51-1.12-2-1.82-2.75-1-1.06-2.1-1-3.48-.9-1.69.15-2.63.62-3.65-1-.72-1.16-.38-2.37-1.19-3.3s-.66-.76-1.49-.41c-1.12.46-.43.82-1.8.68-.45-.05-.81-.46-1.28-.47-1.92,0-2.82,1.78-4.6,1.68,0,.29.89.17.92.36a4.32,4.32,0,0,1,0,1.39c-.08.51-1.13,1.58,0,2.23.75.43,2.45-.81,3.68-.65a6,6,0,0,1,3.33,1.83,4.78,4.78,0,0,0-1.56.12,13.71,13.71,0,0,0-2.23.07,15.93,15.93,0,0,0-1.71.94c-.15.1,0,.7-.14.75-.57.26-1.43,0-2,.33-.69.48-.19.78-.64,1.37-.75,1-2.26,1.09-3.43,1.06a14.34,14.34,0,0,0,1.84.33A7.45,7.45,0,0,1,79.58,246a4.34,4.34,0,0,1,1,3.3c-.31,1.24-.43.74-1.83,1.12.91,2.4-1.81,1-1.93,2.74-.43-.61-1.17-.77-1.51-1.06-.09-.08-.09-.76-.23-.9a19.82,19.82,0,0,1-2-1.2c-.29.93.25,1.13.31,2.14,0,.8-.34,1.11-.46,1.81-.18,1-.52,1.7-.72,2.66-.41,2,.3.79-.85,1.51-.24.16-1.4.41-1.55.54a1.42,1.42,0,0,0-.46,0c0,.37,0,.74,0,1.1a3.41,3.41,0,0,1-2.84-.08c-.7-.42-.65-.91-1.09-1.44.28-.88,0-1.17-.81-.89a.66.66,0,0,0-.49.24c-.3.06,0,.66-.24.76-.44.18-1-.2-1.35-.09-2.09.58.14,1.63,0,2.92-1.79-2.54-1.37,1.24-.67,1.12-.76.1-.9.74-.86,1.51.06,1,.37.48.41,1.2.07,1.06-1.15,2.54.55,2.38.11-1.73.34-.68,1.3-.25-.71.91-1.49.31-1.65,1.57-.2,1.64,1,1.54,2.21,1.67-1.29.83-1.8-.29-2.09,1.44-.1.6.43,1.48.41,2.12,0,.24-.08.67-.09,1s-.67.8-.21,1.15c.88.68.63-1,1.07-1.4s.95,0,1.32-.38c.19-.2-.26-1.47.41-1.38-.14,1,.56,1.41,0,2.18-.19.23-.87.21-1.21.7-1,1.44.32,1.63,1.45,2.22-1.18,1.05-2.28-1.17-2.78,1-.23.95,1,3.06,1.65,3.73-.79.2-1-.81-1,.91a9.63,9.63,0,0,0,0,1.2l.61.21a1.53,1.53,0,0,1-.16,1.18c.81.06.89-.54,1.46-.43a6.79,6.79,0,0,0-.08,1.2c-.1-.76-1.27-.49-1.74-.46-.22,1.18.53.41.72,1.06s0,.88-.26,1.59c.83,0,.33,2,1.44,1.7-1.41.43-.17,1.77.12,2.47.42,1.05.13,1.48.37,2.5.47,1.89-.13.2.94,1.11-1,.95-.59.25-.45,1.7.1.89.51,1.84-.21,2.62,2.21.17,0,.2.43,1.16.24.52.51.7.7,1.2-.2-.33-.26,1.33-.23.95a4.33,4.33,0,0,1,.2.69c.09.7-.52,1.22.46,1.31,0,.43-.28.59-.72.47,1.08,1.33.34,3.71.45,5.24a42.73,42.73,0,0,0,1.11,5.56c0,.24.55,1.77.54,1.86a1.44,1.44,0,0,1-.71,1.1,1.45,1.45,0,0,0,.84.89c.43.9,1.12,1.65,1.53,2.65.53,1.31.37,1.44,1.74,1.44A6.06,6.06,0,0,1,74.9,326.36Z"/><path class="cls-1" d="M132.87,239.13c-.07.28-.1.45.18.3Z"/><path class="cls-1" d="M144.48,239.15a1.79,1.79,0,0,1-.33.51l.31.06C144.46,239.43,144.48,239.14,144.48,239.15Z"/><path class="cls-1" d="M77.82,338.49a1.58,1.58,0,0,0-.17-.71,7.06,7.06,0,0,1,1.48.6c0-.65.58-1.44.69-2.21.08-.55-.08-.6.2-.88,0-.36-1-.66-.7-1.3.19-.41,1.38.12,1.3-.75-.06-.71-.93-.53-1.09-.94-.28-.75.65-1.47.11-2.24,1-.36-.3-1.66-.94-1.92-.36-.16-1.07,0-1.5-.06a21.21,21.21,0,0,0-2.06-.62c.21,0-.61-.78-.92-.89a8.73,8.73,0,0,0-3.42-.15c.67,1.48,1,3.77,3.13,3.57-.37,0-1.1,0-1.21.44-.19.79,1.68.37,2,.76a3.31,3.31,0,0,0-1.43.13,34.3,34.3,0,0,1,1.5,4.45A13.5,13.5,0,0,0,76,337.58C76.72,338.54,76.31,338.56,77.82,338.49Z"/><path class="cls-1" d="M187,303.5c1-.4,2.41-.13,3-1.29s.28-2.61,1-3.81a4,4,0,0,1,.89-1.11c.33-.26,1.14-.09,1.21-.58a21.07,21.07,0,0,1-4.58.64,20.09,20.09,0,0,1-2.15.28c-.71,0-.92-.52-1.68-.4-1.79.26-2.22,1.77-2.65-.9-.24-1.5-.71-2.54-.58-3.95-.73.32-.88-.07-1.18-.14-.12,0,0-.52-.46-.62-.2,0-.23.4-.41.4-1.48,0-1,.47-1.23-.84,0-.23.24-.61.2-.94a8.59,8.59,0,0,0-.49-1.16c-.56-1.34-1.78-4-3.35-4.26-.21,0-.83.52-1.34.44-.76-.1-.83-.69-1.38-1-.9-.51-1.73-.36-2.78-.71a3.26,3.26,0,0,1-2.4-2.06.68.68,0,0,0,.35-1.06c-.07-.22-.14-.45-.22-.67a7.3,7.3,0,0,0-.27-.91c-.19-.35-.76-.16-.87-.76-.17-.87.36-1,.65-1.65a11.47,11.47,0,0,0,.77-3.44c0-1.5-2.21-2.93-3.36-3.27a6.57,6.57,0,0,0-1.26,0c-.29.07-.66.7-.87.7-1.48,0,0-.06-.87-.48-.57.68.15,1.54-1.29.95-.7-.28-.29-1.22-1.27-.84.42-1.06-1-.41-1.49-1.26,0,.9-.59,1.58.38,2.12-1.13.52-1.4-.31-2.34-.62a5.59,5.59,0,0,1-2.8.22c-.84-.8.49-1.53.63-2.21-1.51-.12-1.56.48-2.06-.44-.38-.71.38-1.24-.35-1.67a6.46,6.46,0,0,0-1.55-.12c-.8-.06-2.44.28-3.18,0-.25-.1-.72-.94-1.31-1.19-1.82-.76-.23.69-.53,2-.08.34-.69.22-.74.41s.25.23.23.34c-.51,2.47.58,4.07-3,4.43.69.33,1.35,1.24,1,1.76a3.25,3.25,0,0,1-2.51.53c-1-.53-.63-2.72-1.74-.56-.29.56-.17,1.07-.39,1.59-.3.7-1.14.76-1.39,1.37.56.52,1.38,2.79,2.15,1.74.18,1.56-.55,1.46-1.45,2.4-.65.67-1.29,3.13-1.78,3.44-.93.59-2.14-.36-2.33,1.31-.14,1.26.51,1.8-.35,3.2-.65,1.07,2.21.74,2.5,1,.64.6-.2.83-.45.86a21.49,21.49,0,0,1,.14,2.56c0,.05-.51-.06-.52.05,0,.3.27.61.24.89-.14,1.35.13,1.53-.76,2.65-.17.21-.85.49-.95.67s.16.83,0,1.07-.61.12-.63.16a11.17,11.17,0,0,1-.35,1.22c-.13.22-1-.23-1.09.29.57,0,1.41.45,2,.55s2.34-.11,2.41.83-.68.66-1.35.93c-1.35.57-1.79,1.72-2.68,2.79-.32.39-.88.52-1.22,1.08.63.84,1.28,0,1.64,1.16.28.95-.78,2.38-.82,3.2,0,1.14,1,2.15-.49,2.17.12,1.47,1,1.89.22,3.12a11,11,0,0,1-1,1c-.51.33-2.23-.3-2.25.48.69.09,5.35.85,5.62,1.32s-.23,1-.58,1.41c-1.16,1.25-.93.47-.77.08l-.29.61a6.46,6.46,0,0,0-.08,2c0,1.6-.1,1.92,1.57,1.89a3.3,3.3,0,0,1,1.83.28,5,5,0,0,0,1.92.51c1.33-.15,1-1.31,1.85-.07a7.54,7.54,0,0,1,2-.23c1.16-.13.39.74,1.74-.21.27-.18.53.19.77-.19s-.5-1.07-.35-1.53c.33-1,1.32-.6,2.3-.64a18.87,18.87,0,0,1,3.69-.26c.76.1,1.71,1.42,2.5.45.19-.24-.21-.9-.08-1,.59-.6,1,.27,1.58.68-.08-1.56.08-3.09,2.09-3.06,1.49,0,1.6,1.51,2.72-.17a20.22,20.22,0,0,0,.45-2,3.77,3.77,0,0,1,.48-1.29,2.16,2.16,0,0,1,1.2-.82c.2-.07.8.05,1,0s.58-.53.84-.64.62.19.85.1.75-.55,1.07-.65c0,0,1.11-.26.91-.16.09,0,1.05-.66,1.07-.66,1-.3.57-.18,1.44.28a7.48,7.48,0,0,0,1.07.19c-.09,0,.16.65.13.65.4,0,.7-.31,1-.47a2.37,2.37,0,0,0,1.19-1.06c.37-.71-.25-1.22.12-1.71-2.09-.1-.36-1.88.42-2.41.21-.14,1.25-.85,1.52-.81.43.07.43.71.75,1s.67.31,1,.66c.19.19.33.68.54.93a4,4,0,0,0,2.2,1.42c1.06.14,1,.1,1-.81-.09-1.11-.51-.86-1.59-1.14-1.27-.33-1.46-.38-1.38-1.66.09-1.51.33-.93,1.52-.17.69-.39.55-1.26,1.23-1.58s1.65.37,1.86,1a5.53,5.53,0,0,1,2.72.49c0-1.18-.26-.69.36-1.66.06-.09.37-.88.39-.88.49-.18,1.52.15,2.1.09s1.14-.25,1.74-.33c.08-.3-.37-.73,0-1A7.56,7.56,0,0,1,187,303.5Z"/><path class="cls-1" d="M130.28,320.44c.13-.28.07-.18,0,0Z"/><path class="cls-1" d="M88.93,373.07c.21-.07,0-.16-.11-.19a1.45,1.45,0,0,1,1.11-.06c.46.24.56,1.85.8,2,.45-1.44,2.48,0,1.85.78.48,0,.7-.11.72.35.35-.31.63-.24,1-.41-.12,1,.38,1.31.78,2.16a.75.75,0,0,1,1.26-.12c.23.38-.37.72-.37,1,0,.41-.29.76,0,1.38.47.9.29.18,1,.73A12.6,12.6,0,0,1,98.84,383a10.66,10.66,0,0,0,1.36,1.07c.34.17,1,.08,1.19.24.62.41.55.48,1,1s.16.72,1.18,1.12c2,.79,3.18-1.58,3.2,1.12,1.45-.19,2.28,1.5,3.5,2.05.54.24,1.12.45,1.62.7l.09.46.91-.06c.78.56,1,.25,1,1.5a8,8,0,0,1,2.52-.27c1.26-.08.82.1,1.31-.62.65-.93.47-1.84,1.84-2.28s1.52,0,2.4.77c.52-1.94,3.68-.23,5-.05.27-3.71,4-1.74,4.57-4.66s-3.2-1.06-4.43-2.72a7.78,7.78,0,0,0,2.31-1.86c.4-.7.6-1.89-.42-1.73.35-.94-.12-2.54.47-3.06s1.87.31,2.61-.67c.42-.56,0-1.81.53-2.3,1.07-1,2.6.65,3.25.65.25,0,.32-.68.56-.7.6,0,.65.34,1.09.53s1.22.61,1.85.85c-.13-.93,0-1.68,1.06-1.84-1-.46-.54-1.38.4-1.38s1.09,1.34,1.64,1.36c.38-.1-.3-2.15,0-2.56s.77-.29,1-.5.19-.42.42-.93c.16-.34.77-1.85.36-2.28s-2,.28-2.52-.08c-.81-.51-.38-2.14-.51-3.13-.23-1.74-.66-.76-2.06-.76-.05,0-.32.43-.69.2s.15-.66-.11-.92-.06-.41-.34-.66-.72.22-.92.06c-.54-.44-.16-.51-.14-1,0,0,.92-1.68.48-2.17s-1.21.19-1.31.21c-.74.13-1.6.47-.9-1.05-.87.18-.78-.51-1.77-.44.24,1-.66,1.44-1.4,1.94-1.2.81-1.63.06-3.15.59-.84.29-.87,1.29-1.67.1-.69-1,.12-1.09-.93-1.56-.5-.22-1.17-.05-1.69-.26s-1-.87-1.34-.87c-.06,1.13.52,1.8-.64,2.26-.33.13-1.79.1-2-.22-.81-1.14.75-1.72.85-2.1.24-.88-.54-1.72-1.13-2.4a3,3,0,0,1,.09-.59,3.11,3.11,0,0,0-.65-.28c-.15-.29-.52,0-.63-.19a.91.91,0,0,1,.2-1.16c1.09-.76,2.19,1.31,2.62,1.73s1.51.64,1.59,1.59c.49-.22.55-.74,1.64-.43s1.37,1.36,2.09,1.6c1.07.35-1.11-1.4-.85-1a2,2,0,0,1-.09-1.76c.42-1.14.65-.4,1.31-1,.11-.1.81.17.85-.1-.8-.28-.87-1.82-1.35-1.93-.11,1.36.66,2-.81,1.24-.8-.4-.84-.26-.94-1.22-.66.41-1.52-.31-2.12.2-.22.18.1,1-.11,1.16-.57.44-1.38-.17-1.78-.26-1.31-.3-.85-.07-1.47-1-.14-.23-.65-1-.63-1.29a1.88,1.88,0,0,1,.86-1.15c-1.21.26-1.42-.65-1.82-1.17-1.11-1.5-.5-2-.37-3.63a12.24,12.24,0,0,0,.72-2.79c-2.25.16-.61-2.15-.4-2.79,1.24,1.39,1.1,1.22,2.69,1.31.6,0,1.31.56,1.85.24.76-.45.88-2.25.76-2.94-.22-1.38-.67-.94-1.33-1.91s-.82-4.31.88-4.38c-.13-1-1.16-1.3-.82-2.65a2.27,2.27,0,0,1,.58-1.13c1.56-1.62,4.65-.31,6.57-.28,0-1.49-.33-3.12,0-4.58a2.48,2.48,0,0,1,.47-1.22c.29-.29,1.17.31,1.24-.44-.71,0-5.37-.84-5.63-1.44-.63-1.45,2.12-1.38,2.63-1.76s1.66-1.67.33-1.61c.39-1.16-.67-2.23.81-2.26a6.27,6.27,0,0,1-.05-2.16,8.16,8.16,0,0,0,.38-1.87c-.09-.92.19-.47-.14-1-.23-.37-1.25,0-1.35-.88-.05-.4,1.89-2.41,2.26-2.85.62-.75,1.89-2,3-1.94-.57-.71-4,0-4.36-1-.5-1.43,2.68-1.93,2.06-3.86,1.79.42,1.65-1.86,1.64-2.76,0-1.1.33-1.07.48-2,.06-.4-.37-1.2-.26-1.8-.54,0-1.08,0-1.62,0,.16-1-.77-.5-1-1.31,0-.18.25-.52.32-.32-.08-.23.38-1.31-1-.88-.1,0-.82,1.07-1,1.28a10.38,10.38,0,0,1-1.52,1.11c-.35.24-.2.63-.77.83-.87.3-2.2-.93-2.81.29.85.39.86,1.89-.15,1.93.08.76.17.64-.27.72-.16.38.15.35-.38.31.17.79-1.69.78-2.3.5,0,.36.83.73.71,1-.32.65-.68.66-1.21,1.15.1-.09-.46.84-.27.78-1.18.37-.3-.09-1.34-.46-1.45-.53-1.9,0-2.61,1.05-.46.7.41.52-.74,1-.17.08-.84-.24-1.1-.29.21.72-.1,1.22,0,1.8.08.43.65,1.28.67,1.47a9.44,9.44,0,0,1-.3,1.65,8.55,8.55,0,0,0-3.44-1.38c-1.09-.13-1,.19-2.44.12-1.67-.09-1-.92-2.24-1.53-.46-.24-1.1.13-1.7-.1s-.87-1.12-1.56-1.1a17.75,17.75,0,0,0,0,2.72c.09.63.44.74.37,1.47,0,.36-.5.61-.55,1.14s.83,1.76.49,2.43c-.79,1.62-1.23-.11-1.93-.06,0,2-3,.41-4.57.83.38,1.24-.9,1.64-1.89,1.26-1.28-.49-1.51-1.34-3.18-1.26a4.58,4.58,0,0,1,0,1.43c-.94-.11-.29.52-.91,1.13A8.21,8.21,0,0,1,88,312.09c-1.19.49-1.57.68-.32,1.65-.79-.06-2.24.63-2.88.26s.09-1.84-1.65-.88c.15-.08-.43.82-.46.84.22-.21-1.4.67-.9.51-.4.13-.27.7-1.37,0,.09.67.92.71,1.09,1.28.32,1-.15.66-.17,1.35,0,.21-.7.57.06,1.18.78-1.19,2.25,1,2.4,1.85.35,2-.66,1-2,1.53-.09.57,1.2.35,1.49.84.62,1.08-.81,1.5-1.18,2.15-.56,1,.73,1.69-1.24,1.05.14.26.07.49.17.73-.77-.22-3.15-.06-3.1,1.15a1.89,1.89,0,0,1,1.85.76c1.61,1.52-.09,1.85.41,3.46.19.59,1.5,1,.95,2.13,0,.06-1.28.59-1.29.59,1.27.68.39,2.28,0,3.28s-.12,1.71-1.5.78a1.34,1.34,0,0,0,.1.44c-.65,0-1.31.05-2,.08a3.63,3.63,0,0,1,.92.78c-3,.22-.64,1.21.7,1.87,1.12.56.81.28,1.28,1.54.29.8.55,2.18,1.63,2.08a1.41,1.41,0,0,1-.45.76,2.25,2.25,0,0,0,.3,1c.15.49.55.78.73,1.19a15.51,15.51,0,0,1,.23,2c.18,1-.44.46,0,1.38.3.56,1,1,1.38,1.56a7.46,7.46,0,0,1,.85,3.72c1.53-.13.44.58.48.83s.15.81.17,1.09c0,.69.5,1.37.31,2.1.2.56.07.86-.4.89a1.65,1.65,0,0,0-.74.39c0,.34,1,.63,1.17.89a7.18,7.18,0,0,1,.68,1.85c.41,1.69-.31,2.93,1.15,4.06C86.08,369.58,87.3,373.53,88.93,373.07Z"/><path class="cls-1" d="M121.58,443.82c.15-.7,1-2,.77-2.95.18.12.73.34.9.25.53-.47-1.32-3.11-.91-4,.51-1.07,1.41-.95.85-2.28-.47-1.12-1.46-1.16-.9-2.45.2-.46,1-.77,1.23-1.57.13-.5-.08-1.2.14-1.69s.7-.66.85-.95,1-2.37,1-2.51c0-.45-.54-.85-.58-1.36-.69.1-.09.81-1,.6a2,2,0,0,1-1.64-1.27,11.69,11.69,0,0,1,.54-2.2c.06-.35.13-.89.18-1.17.19-1.18.93-2,.69-2.88,0-.12-.65-.22-.73-.35a3.82,3.82,0,0,1-.16-1.4c1.48.28,1-2.65.11-3-1.81-.6-2.53,2.31-3.9,2a5,5,0,0,1-1.67-1.74,6,6,0,0,1,0-3.94c.24-1.08,1-3.18.14-4.24a5,5,0,0,0-2.92-1.17c.25-.74.28-1.72.51-2.32.05-.13.42.05.53-.3.36-1.08-.22-1.67-1.11-1.95s-3,.65-3.15-.22a6.39,6.39,0,0,1,1.43-2.24c-.86-1.13-2.84-1-3.88-1.69-.37-.23-.44.1-.68-.2s0-2.25.16-2.8c1,.34,2.89.74,2.9-1,0-.54-.16-.37-.63-.71-.16-.11-.55.05-.73,0-.52-.26-.7-.69-1.17-1-.46.27-1.26-1.36-2.57-.92,0-.51,0-1,0-1.51a5.63,5.63,0,0,1-2.3.35c-1.47-.23-1.26-.91-2.08-1.73-.53-.54-1.11-.38-1.94-.84s-1-1.23-2-1.1c.32-2.08-1.71-1.8-2.52-2.86a4.22,4.22,0,0,1,0-1.07c-.06-1.13.07-.62.41-1.62-.3-.08-.52.51-1.13.34-.38-.11-.41-1-1.09-1.06a1.61,1.61,0,0,0,.18-.81c-.29.25-.43.47-.75.41.16-.06-.76-.84-.94-.82-.07-.33-.13-.84.09-.7-.93-.58-.7.18-1,.13-.67-.1-1.42-.37-.9-1,0-.36-.57-.06-.67,0a4.52,4.52,0,0,0,0-1,2.54,2.54,0,0,1-1.66.32c.48,1.32,1.38,2.32,1.79,3.69.46,1.53.81,3.08,1.39,4.58a23.72,23.72,0,0,0,.82,2.75c.43.67,1,0,1.52.54.09.19,0,.3-.18.34,0,.26,1.3.79,1.51.95-1.47.14,0,1.24.65,1.81,1,.83,1.69.28,2.68.75,1.5.72,0,.84-.17,1.59-.16,1,1.25,1.82.28,1.88.22,1,.76,1.21,1.19,1.85A10.24,10.24,0,0,0,101,396c-.74.26.06,1.23.21,2.37a.82.82,0,0,1,.91-.16c0,.19-.41.81-.42,1.17a13.36,13.36,0,0,0,.63,2.51,29.66,29.66,0,0,0,.95,4.21,5.66,5.66,0,0,1,.34-1.21c.31.47.23,1.06.48,1.39-1.37-.68.06,1.75.34,2,.67.69.81.51,1.52,1.47-.73.07-.54-.71-1-.58.17,1.68,1.58,3.18,1.55,4.92.69-1,.45,1.24.62-.91.28.23.51,1.68.94,1.62-.19,0-.76-.21-.73-.46-.54-.14-.26,1.76-.17,2,.39,1.1,1.7,1.71,2.18,2.72a13.18,13.18,0,0,1,.67,3.47,4,4,0,0,0,.37,1.62c0,.07,1.24-.47,1,.78-2.83.16-1.8-1.62-2.15-3.13-.12-.53-.56-1.7-.79-2.37-.16-.47-1.11-1.71-1.11-2.1,0,1.29.71,2.58.92,3.86s.13,2.64.43,3.93a31.65,31.65,0,0,0,2.37,7.22c.09-.19.72-1.08.75,0-.74.32-.57.63-.13,1.34a1,1,0,0,1,1.81-.15c-.31.32-1.57.38-.69.9h-.57c0,.81,2.91,1.27,1.12,1.32-.13,1.47,3.06,4,3.86,5C118.55,442.39,119.24,444.48,121.58,443.82Z"/><path class="cls-1" d="M170.18,363.41a1.69,1.69,0,0,0-.52-.43c-1-.56-.88.21-1.38.18-1.24-.09-.62-.93-1.48-1-.06,2-.35,1-1.27,2.4-.69,1.07,0,1.44-.89,1.95-.31.17-.79-.12-1.12.1-.16.12-.29.61-.33.64-.23.14,0,.35-.38.55-1.72.8-1.47-1.7-2.11-1.49.08,0-.74,1-1.26,1,.09-1.22-.88-2.33-2.26-1.52a3.35,3.35,0,0,0,1.13.38c-.79.28-.41.73-.76,1.2-.06.07-.56.73-.61.81-.65,1-1.08,1.58-2.15.9a2.07,2.07,0,0,0-.13.89c-.9-.1-1,.81-2,.78s-1.68-1.1-2.82-1.28c-.9-.14-3.76.08-4.28,1-.3.48.4,2.06.11,2.82a20,20,0,0,1-1.46,1.75c-.92,1.19-2,2-3.41,1.45-1-.39-1.11-1.35-1.7-1.8a15.55,15.55,0,0,0-2.5-1.45c-.86,2.28-2.26-1-3.63,0-.44.32-.15,1.81-.55,2.31-.64.79-1.8.72-2.72.75a10.59,10.59,0,0,1,0,2c.47.06.36.27.39.79.11,2-.87,2.28-2.16,3.43,1.05.67,3-.26,3.88.82a2.92,2.92,0,0,1,.19,2.1A11.68,11.68,0,0,1,131,387c-.14.12-.06.27-.26.41-.69.51-1.94-.21-2.76.55-1.59,1.5.56,2.47-1.85,2.09-.64-.1-1.3-.38-2-.46a3.61,3.61,0,0,0-1.5-.05c-.23.07-.29.5-.34.5-.51.09-.3.06-1.19-.21-.72-.23-1.31-.69-2.18-.05-1.8,1.32.06,2.69-2.74,2.68a10.56,10.56,0,0,0-2.77.32c0-.18,0-.37,0-.55-.6,0,0-.58-.64-1-.8-.54-1.37.47-1.73.8-.88.8-1,1.28-2.41.49-.25,1.76,0,1.65,1.49,2.11a5.18,5.18,0,0,1,1.86,1c.61.46,1.16.11,1.21,1.15,0,0-1.22,1.55-1.3,1.65,3.12-.21,4.15.06,4.07,3.28-.12,0-.77-.08-.79,0-.33,1.07.07,1.07.75,1.58,1.49,1.12,2.53,1.17,2.28,3.5-.12,1.14-.7,2.27-.8,3.52a4.86,4.86,0,0,0,.37,2.54c.4.53,1.32.57,1.56,1.25a9.51,9.51,0,0,1,1.15-1.12,3.88,3.88,0,0,1,1.43-.89c1.32-.36,2,.46,2.19,1.69a3.73,3.73,0,0,1-.19,1.79c-.1.33-.64.43-.66.61,0,.37.39.41.43.6.09.41.78.62.67,1.32,0,.15-.37.22-.4.35a12.13,12.13,0,0,0-.45,1.41,10.71,10.71,0,0,1,.14,1.23c0,.33-.43.26-.54.66-.19.74-.46,1.74.06,2.19.94.8.58-.19,1.2-.11s1.46.06,1.5,1.35c0,1.12-1.18,2.16-1,3.55-.62-.18-.67,0-.93.52s0,1.34-.21,1.89a8.5,8.5,0,0,1-.74,1.36c-.35.7-.84,0-.28,1.11.19.38.88.68,1,.92.85,2-1.34,2.22-.94,3.94.13.56,2,3.58-.13,3.08,0,1.64-.25,2.47-2.13,3,1,1.67,5,3.78,7,3.14.73-.24.47-.57,1-.83.8-.4,1.83-.21,2.66-.73s1-1.24,1.76-1.73,1.79-.41,2.53-1.09a6.66,6.66,0,0,0,1.7-2.72c.24-1.58-.46-1-1.73-1.06.05-.72,1-.19,1.26-.38.63-.42.3-.18.77-1,.68-1.26.13-2.31.55-3.59.31-.93.79-1.12,1.59-1.6,1.31-.77,1.83-1.37,3.41-1.69a15.58,15.58,0,0,0,3.33-1.05,10,10,0,0,1,2.8-1c2.13-.34,6.16-.41,7.85,1.14.3-.36.23-.56-.22-.61-.55-.31-.41-1-.45-1.53a7,7,0,0,0-1.55.27,4.61,4.61,0,0,1-2.52-.36c-1.87-.82-3-1.23-2.4-3.43.42-1.64,1.75-2.87,2.61-4.24.23-.37,3-3.47,3-3.51-.14-.4-.61,0-.63-.4a6.27,6.27,0,0,1,.1-1.14,4.59,4.59,0,0,1,1.16-2.09c1.7-1.45,5.74.25,7.78.11-.65-1.21-4.05-1.28-5.11-.8-.2-.5,2.87-.68,3.32-.63a2.83,2.83,0,0,1,2.23,1.57c1-1.65.47-7.37-.54-8.58-.69-.81-2.22-1-2-2.39.84,0,.95-1.45,2.31-.67-.05-2.19.19-4.67-.45-6.75-.53-1.74-.27-2.84-.19-4.72-.26.09-.12,0-.26-.07-.45.14-1.61-.54-2.55-.81.37-.74-.38-1-1.15-1,.1-.64.5-.84,1.12-.88a14.16,14.16,0,0,1-.1-1.74c.32-.3,1.35-.29,1.44.26.37-1.65,1.21.72,1,.63a.92.92,0,0,0,1.29-.53c.58-1.07-.52-1.29-.51-1.44.05-1.38.81-.16,1-.16.62,0,.37-.75.61-1.12a15,15,0,0,1,1.63-1.78c.74-.83,2.52-3.25.3-3.47,1.13,0,1.22.37,2-.65a9.54,9.54,0,0,0,1.08-2.85c.31-1.3.07-2.64.49-3.91.46-1.44,1-2.34.84-3.93A6,6,0,0,0,170.18,363.41Z"/><path class="cls-1" d="M119.45,414.26l0-.06S119.4,414.27,119.45,414.26Z"/><path class="cls-1" d="M206.6,200.28h.12C206.65,200.19,206.6,200.18,206.6,200.28Z"/><path class="cls-1" d="M178,132.13c-1.37-1-2.62-3-2.8-.19-.64.07-.56-.68-1-.81a7.32,7.32,0,0,1-1.7-.6c-.54-.37-1.21-2.37-1.82-.7-.9,2.48-2.63-.63-3.88-.22,0-.48,0-1-.05-1.44-1.74-.1-4.17.6-5.61-.17.17.1-.34-.8-.34-.8s-2.07-.81-2.08-.82c-.6-.24-1.43-.4-1.65-.78-.93-1.64.41-1.26-2-1.46-1.3-.11-1.64-.62-2.52-1.67-1.57-1.88-.44-1.77,1.26-2.71-.13-.37-1.49-.84-1.9-1.12a20.61,20.61,0,0,1-2.86-2.19c-.65-.69-.87-1.91-1.7-2.4-1-.59-.61-.21-1.55.07a3.71,3.71,0,0,0-1.23.58,11.37,11.37,0,0,0-1.12.71c-.33.34-.61,1.33-1.11,1.5s-1.45-.91-1.95-1.14a1.19,1.19,0,0,0,.3-1.18c-.81.22-2.14.71-2.79-.1-.32-.39-.06-1-.18-1.49s-.66-.76-.59-1.4c.11-.93,1.58-2.19,1.92-3.06s.12-1.54,1.06-2a11.15,11.15,0,0,1-3.7-2,15.82,15.82,0,0,1-2.67,4.32c-.15.19,0,.45-.15.58s-.77-.13-1,.1a13.78,13.78,0,0,0-.75,1.39s-.18,0-.21,0c-.31.43-.34-.09-.68.63-.19.38.08,1,0,1.46-.68,2.41-2.24,3.67-2.17,6.5,0,1.72.81,3.37.88,5.13a7.43,7.43,0,0,0,.66,3c.46,1.11,1.42,1.72,1.51,3.14,0,.27-.46.29-.45.42s.33.2.33.31a6.32,6.32,0,0,0,1.12,3.34,12,12,0,0,1,1.64,3c.59,1.86-.1,1-.87,2.2-.66,1,.36,1.3.31,2.24,0-.41-.66.66-.51.45,0,0-.5.85-.52.93a4.66,4.66,0,0,0-.27,2.09c.14,1.19.64,3.42,1.55,4.11.2.15,4.05,1.11,1.77,1.79,2,.74.35,1.24.75,2.46-.1,0-.87-.19-.92-.06-.31.9,0,.53.44.82.91.56,2-.06,2.13,1.51-.43,0-6.46,1.52-4.79,2.85.11-2.51,4.15-.13,3.49-2.38,1.3-.18,2.06.44,3.09.37.42,0,1.18-.19,1.46-.17.12,0,0,.85.3.88.06-.53,1-2.09,1.7-1.95.32.06.16.57.47.75a2.93,2.93,0,0,0,1.66.64c-.33.07-1.29.42-1.32.88,1.81-.41,2.27,0,4.06.41a6,6,0,0,0,2.23-.32,3.64,3.64,0,0,1,2.73,1,6.13,6.13,0,0,1,1.93,1.9,6.39,6.39,0,0,0,.11,1.23c.24.37.48.75.73,1.11a4.87,4.87,0,0,1,.21,2.78c-.37,1.18-.09.3-.87,1.42a5.88,5.88,0,0,0-.81,1.89c-.42,1.57-1.83,3-1.89,4.66a2.35,2.35,0,0,0-.54-.45c-.27.53.13.88-.23,1.18.52,1,.85,1.27-.3,2a14.57,14.57,0,0,1-1.84.65c-.63.14-2.23-.37-2.75.11s.11,1.3-.27,1.71c-.64.71-.76-.48-1.21.69a3.3,3.3,0,0,0,.14,1.94c.2.44.59.12.75.44a2.81,2.81,0,0,1,.35,1.72,1.38,1.38,0,0,0-1.32.93c-.59,1.33-.3,2.55-2.27,3,.4,1.14,1.18,2.19,1.32,3.44,0-.19-.24,2.38-.53,1.78.27.54.69.13.9.49.38.63.85.38,1,1.47.07.4-.48,1.51,0,1.56s.93-1.6,1.62-2c.17,1.05.72.39,1.35.93s.55,1.57,1.27,2.1c.12-.84,1.48-.9,1.87,0,.39-.32,1.45-.71,1.73-1,.94-1.15,0-1.35-.25-2.15-.1-.32-.38,0-.46-.36-.12-.51.54-.7.54-.88,0-.5.07-.86-.36-1.22-1.62-1.32-2.62,1.77-2.25-1.79.08-.7.42-1.49.11-2.17-.2-.45-1.16-.3-1.44-1.35-.22-.8-.24-1.83-.43-2.36,0,.09-.33-.29-.38-.43-.3-.7.08-1.53-.56-2.11-.49-.44-1.41.25-1.56-.67-.06-.41.27-.33.33-.46-.23.53,1-1,.84-.84.79-.64,2.47-1.53,2.46.27,1,.06.31-.37.76-.89.06-.07.56-.09.59-.13s0-.77.14-.87.51,0,.66-.15,1-1.33,1.5-1c.77.57-.29,1.18-.24,1.71s.47,1.13.56,1.73c-.65,0-1.74.07-1.67,1l.17.1c.24-1.44,2.33-.92,1.17.74,1.22-.43,1.78.38,1.89,1.24.83-.29,2,.27,2.59-.07.35-.21-.15-.47.39-.72-.06-.72-.67-1.51-.76-2.32.68.08,1.38.57,2.05.44-.31,1.44,1.05.39,1.43.95.82,1.21-2.32,2.14-1.59,3.4.2-1,2.16-1.07,2.16-1.07s0-.94.47-.86c.75.14.4.53.8.68a7.07,7.07,0,0,0,2.72-.08c.33-.31-.06-.89.24-1.4.46-.78.67-.28,1.15-.52.7-.36,1.91-.43,1.14-1.52.64-.16,1.35.06,1.91,0s1.29-1.11,2-.77c.35.17.67,1.33,1.17,1.83.2.2,1,.7,1.08.91.39,1.06-.59,1.11-.79,1.75s.05.3-.13.84c1.07-.54,1.38.57,1.36,1.33.61,0-.86-3,1.2-2,0-.95,1.63.5,2.07.49-.25-1.18,1.31-.62,1.31-.62a6.36,6.36,0,0,1,1.36-.47c-.36,1.06-.27,2.49-.74,3.54a2.53,2.53,0,0,1,2-.33c1,.07,2.11.13,2.63-.43a9.47,9.47,0,0,0,.53-1.28,5,5,0,0,0-.09-1c.3-.48,1.26-.26,1.26-.26a1.27,1.27,0,0,1,1.15-.24c.32.09.48.75,1,.87,0-.07.57-1.8,1.48-1.65.73.12,1.14.79.89,2.2a3.34,3.34,0,0,1,1.54.11c.26.08.23.67.56.81s2-.1,2.18.19c.4.51-.33,1.58.15,2.17s1.9,0,2.64.2c0,0,0,.51,0,.52a10.64,10.64,0,0,1,1.4.29c.53.33-.05.91.27,1.56,0,.08.76,0,.9.15s0,.72,0,.75a1.15,1.15,0,0,1,.62.44c-.13-1.31-.21-.9.44-1.23s1.66.13,2.24,0c.29,0,.95-.47,1.07-.47,1.25,0,1.11.31,1.79,1.06.3.34.73.12.93.71.35,1-.42,1.55-1.37,1.26,0,.8-.07.51.43.57a3,3,0,0,0,0,1.33.83.83,0,0,1,.8,1,8.68,8.68,0,0,1-.27,1c-.19.87-.63,1.21-.66,2.27a2.19,2.19,0,0,0-.51,0,12.75,12.75,0,0,1,1,1.76,3.59,3.59,0,0,0,.47,0c-.1.61,2.54,1.77,3,1.87,1.72.34,2,0,2.57-1.2.32-.73.61-2.19,1.74-2.23-.92-1.46.33-1.09.67-2.15.09-.27-.37-.47-.31-.72s.27-1.14.31-1.45c.08-.55-.51-1.55-.14-2.17s1.33-.24,1.65-1.14c.57-1.6-1.51-2.3-2.11-3.37a7.59,7.59,0,0,1-.68-4.82c.77-3.09,4.25-3,6.34-4.83.55-.49.65-1.25,1.15-1.79s1.26-.65,1.76-1.1c.84-.75.82-2.12,2.35-1.91.77.1.49.72,1.09.77.16,0,.64-.73.92-.81.74-.2,3.17,1,3.62.06.53-1.1-1.14-1.45-1.72-1.67a14.16,14.16,0,0,1-2.48-1.27c-1.55-1-3.85-2.87-4.46-4.81,1,.13,2.92-.19,2.45-1.5s-2.1-.44-3-1.19a1.49,1.49,0,0,1-.34-1.67c.48-.76,1.11-.23,1.65-.51s.66-.87,1.55-1c.47-.09,3,.42,3.21-.22.06-.16-1.45-.59-1.51-.63-.76-.52-.16-1.58-.75-2.22-.27-.3-1.48,0-2-.22-1.22-.62-.61-1.41-1-2.44s-.56-.53-1-1.1-.33-1.36-.63-2.08a6.38,6.38,0,0,0-3.55-3.29c-.75-.31-2.71-.74-3.47-.28-.56.34-.54,1.32-1.41,1.6-1.41.45-1.57-1.7-3.42-1.84-1.67-.13-2.83-.33-4.6-.44-.05-.79.18-2.69-.68-3.21s-2.4.76-3.4.45c-.78-.24-1.19-1.07-1.87-1.51a16,16,0,0,0-3.45-1.57c-1-.26-.89.14-1.68.18-.28,0-.44.43-.85.39-.08,0-.91-.85-1.09-1-.47-.29-1.13-.29-1.6-.58l-.91-.4,0-.53a19.62,19.62,0,0,0-2.65-1.72c-1.63-.73-1.23.13-1.81-1.79-.51-1.71-2.07-2-3.55-2.75C180.55,133.39,179.56,133.34,178,132.13Z"/><path class="cls-1" d="M102.76,109.88a.8.8,0,0,0,.08-.16S102.77,109.76,102.76,109.88Z"/><path class="cls-1" d="M133.23,141.89c-.9-.81-.43-1.56.09-2.3.72-1,.77.09.76-1.22,0-1.66-1.88-3.23-2.49-4.62-1-2.25,0-.67-1.16-.2s-1.41-1.13-2.24-1.44c-.56-.2-2.36.48-2.26-.92h.28l-.27,0c0-.51.84-.89,1-1.37s-.06-.83.11-1.35a1.89,1.89,0,0,1,2.28-1.26c-.62-1.64-.17-3.58-.59-5.28a10.85,10.85,0,0,1,.17-6.5,10.08,10.08,0,0,1,.68-1.26c.66-1.08.37-1.68.83-2.76s2.15-2.09,2.83-2.84a29,29,0,0,0,1.9-2.79c.79-1.18.67-1.32.35-1.83a2.62,2.62,0,0,0-1.09-.85c-.43-.24-1.07-.38-1.55-.65a10.68,10.68,0,0,0-1-.71c-.41-.18-1,0-1.23-.25-.47-.57.28-2.08-.08-2.77s-2-1.65-2.59-2.26-1.5-2.48-2.27-2.67c-.07.34.53.63.56,1,.07.58.07,1.39.17,2,0,.25-.24.6-.13.78s.78.18.91.39a3.7,3.7,0,0,1,.44,2.44c0,.61.46,3-.59,3.11.52-.07-2.83-2.39-2.25-1.27.71,0,.7,1.2.4,1.66s-1.42.12-1.69.91c0,.1.61,1.19.42,1.73-.13.37-.55.43-.83.61-2.09,1.38-.83-1.21-2.16-1.27-.48,1.54-.93,1-2.28.59,0,.77-1.25,4,.1,3.88-.13,1.44-.63,1-1.41,1.52-.26.2-.83,1.22-1.13,1.31a4.46,4.46,0,0,1-2.51-.36c-.89-.45-.72-1.33-2.17-.86-.35.11,0,.59-.33.7-1.54.45-2.47-1-3.64-.09a7.39,7.39,0,0,0-.9,1.33c-.16.24-.55.34-.7.62-.24.44.16,1-.24,1.37-1.13,1.11-1.28-.37-1.6-1s-.82-.53-.78-1.34,1-1,.86-1.88c-.91,1.82-1.5-1-1.45-1.69-.69,1.18-2.82-1.63-4.37-1.35-.68.13-.64.49-1.1.63-1.38.43-1.63-.34-3-.54.07.72.74,1.62,1.34.92a2.54,2.54,0,0,1-.09,1.81c-.11.36-1.08.51-.55,1.4.08.12,1.14-.12,1.22,0,.44,1-.3,2.45-.34,3.43-.06,1.47.4,1.35-1.22,1.39,0,0,1.08.61,1,.58a1.68,1.68,0,0,0,.09.32c.07.28.3.27.71,0a5,5,0,0,1,1.45.13l.33-.63a4.93,4.93,0,0,1,2.75.8c.24.22.12.8.32,1,1.16,1.35,3.08-.17,4.43.26a7.82,7.82,0,0,1,1.17,1.24c.3.61-.18,1.39,0,2s.59.58.55.89c1.22-.15.35,1.92.34,2.68,0,1.8.51,2.54,1.19,4.13.15.36,0,1,.36,1.28s1.36-.17,1.73.12.1.85.48,1.41c.61.89,1.91,1.12,2.59,2.19,1.06,1.67.58,2.13,0,3.69-.26.77-.68,2.09.08,2.72.56.45,1.47,0,2.16.29-.32-2-.47-2.84,1.83-2.72-.76-1.82-1.06-3.35,1.62-2,.65.33,1.62,2,2.24,2.08,1.52.18.09-.51.72-1s.62-.64,1.81-.56c.08-2.45,2.83-.65,2.9.7,0,.07-.45.31-.47.38a12.82,12.82,0,0,0-.45,2.41c-.06.58-.66,3.77.24,3.64a1.19,1.19,0,0,1,1.37-1,5.94,5.94,0,0,0-.18-1.31C130.21,145,131.62,142.71,133.23,141.89Z"/><path class="cls-1" d="M105.33,115.42s0,0-.1,0S105.27,115.44,105.33,115.42Z"/><path class="cls-1" d="M89.37,107.5a40.41,40.41,0,0,1,5.06.61c1.09.21,1.58.71,2.58.47.28-.07.39-.49.81-.6a4.83,4.83,0,0,1,2.7.42c.46.23,1.2,1.47,1.57,1.53.55-.05.36-1.44,1.3-.48.34.34-.4,1.75.15,2s.42-1.42,1.19-.12c.62,1-.92,1.58-.86,2.37a5.55,5.55,0,0,0,1.36,1.72,12.94,12.94,0,0,1,1.55-2.67c.83-1,.78-1.16,2.11-1.09a8.36,8.36,0,0,0,2.13.1c.77-.16,1.11-.95,2.22-.39.67.34,1.49,1.71,2.5,1.26.42-.18.58-1,.68-1.53a3,3,0,0,0,.37.6c.19-.78,1.07-.24,1.25-.8a12.5,12.5,0,0,1-.48-1.41,11.83,11.83,0,0,1,.72-3.8,12.89,12.89,0,0,1,2,.76c.59-.6.25-1.94,1.48-.62.9,1-.2,1.53,1,.83,1.76-1.06-.3-1.09-.16-2.06,0,0,.85-.69.94-.75.55-.4.88-.11,1.14-.77s-.6-.43-.43-1c.43-1.4,2.39-.78,2.85.36.07-.81.39-2.89,0-3.61s-.94-.67-1.51-.93c-.34-.15-.64-.47-.53-.25-.22-.43-.26-.32-.17-.67l-.25.12c-.27-1.09-.54-2,1.2-1.81-.16-1.34-1.1-1.58-2-2.18-1.55-1-.89-1.71-1-3.11a2.86,2.86,0,0,0-.55-1.55c-.58-.44-1-.14-1.61-.85-.38-.43-.5-1-1-1.43-.26,1-1.27,2.21-2.54,1.38-.58-.38-.11-1.36-.32-2.14-.29-1.08-4.29-4.88-2.08-5.51A6.13,6.13,0,0,0,112,77.1c-.82-.31-1.79-.19-2.51-.72.27-.41,1-.49,1.21-.81s-.35-1.06-.16-1.48c.39-.85,1.28-.36,1.78-.8.93-.81.11-1.51,1.83-1.75A14.06,14.06,0,0,0,113.13,70c-.15.3-.16.9-.53,1s-1,0-1.32.13-.6.53-.88.65,0,.37-.31.5c-.74.27-1.63-.5-2.38-.46a6.4,6.4,0,0,1-.63,3.17c-.66,1.09-1.85,1-3,1-.9,0-2-.22-2.72.31-.51.37-.52,1.24-1,1.55s-1.35.08-2,.59a8,8,0,0,0-1.28,1.83c-.1.18-.51,0-.58.45,0,.3.36.72.45,1,.39,1,1.22,1.83.2,2.62,2.18,0-.17,1.79-.47,2.4-.39.79-.74,2.62,0,3.21.47.39,1.41-.91,1.8-.27.51.86-.59.64-.82.82-1.07.84-1.79,1.84-2.83,2.79-.67.61-1.53.94-2.09,1.56a16.84,16.84,0,0,1-1.36,1.83c-.13.12-.67.38-.73.46-.22.27-.19.69-.47,1.05-.52.66-.9.59-1.39.91-.22.15-.72-.06-.93.23s.24.73.34.57a2.08,2.08,0,0,1-.14.51c0,.1-.68.08-.72.22-.25.89.51,1.36.5,2.46,0,.7-.05,1.77-.74,2.12a1.15,1.15,0,0,1,.57.58C88.43,107.57,86.79,107.35,89.37,107.5Z"/><path class="cls-1" d="M172,100a3.45,3.45,0,0,1,0-1.32,1,1,0,0,1-.83-.54c-.88-1.24-1.28-.78-2.56-1.42s-1.16-2.26-2.76-2.29c-1.93,0-1.5,1.37-3.29,0a9.93,9.93,0,0,1-2.44-2.87c-.3-.5-.61-.93-.92-1.44-.42-.71.28-1.6-1.17-1.25.62-.15-1.07-2-1.41-2a2.76,2.76,0,0,1-.06,1,1.72,1.72,0,0,1-.75.17c-.25.52-.24,1.63-1,1.75a3.6,3.6,0,0,0,.8.9c.32.33,1.16,1.21,1,1.71-.16.65-2.1.78-2.69.5-.37-.17-.56-1.07-1.3-1.4a7.72,7.72,0,0,0-2.58-.22c-2-.2-3.57-1-5.5-.09l-.92.17a2.43,2.43,0,0,1-.25.79c-.42.19-.46.42-1,.51s-.55-.64-1.37-.35a2.76,2.76,0,0,0-1.24,1.55,2.21,2.21,0,0,0,.37,0c.25.91-.47,1.11-1.22,1.07,0,.85.48.85.48,1.68-.88-.18-1.13,1.2-1.29,2,.88.37.18,1.35.24,2.16s1,.68.16,1.73c-.44.54-1.62.71-2.21,1.16a5.55,5.55,0,0,0,1.91,1.72c.37.23,2.9.8,3,1.15.12.73-.92.49-1.17.85-.48.68-.43,1.87-.88,2.62-.93,1.56-1.56,1.43-.82,3.35.42,1.09,0,1.1,1.29,1.09a9.06,9.06,0,0,0,1.75-.41c-.06.58-.32,2.58.79,2.43,0,0,1.08-1.29,1.21-1.43s.57-.14.75-.25.16-.7.63-1a3.21,3.21,0,0,1,3,0c1.19.88,1.67,2.34,2.9,3.29.6.47,2.89,1.64,3.34,2.24,1.23,1.64-1.09.87-1.55,1.6-.59,1,1,1.56,1.58,2s-.12.52,1,.83c.68.18,1.52-.47,2.19.14.42.4.15,1,.42,1.34.66.89,2.43,1.05,3.47,1.64a3,3,0,0,1,.61,1,7.75,7.75,0,0,0,2.05.06c.86,0,2.72-.4,3.45-.11.15.06,0,.18.12.24,0,.28,0,.57,0,.85s.14.36.58.18a1.45,1.45,0,0,0,.48.4c.13.06.93.8.81.79,1.27.1.69-.69,1.52-1.27-1.59-.72,1-3.11,1.49-4s.61-1.67,1.07-2.34a1.29,1.29,0,0,0,.44-.85l.9,0c.39-1-1.38-2.5-.46-4,.37-.6.94-.59,1.28-1.08.46-.66,0-1.17.08-1.83.11-1.21-.15-1,.7-1.82.35-.34.9-.35,1.25-.82s.18-1.41.74-1.87,1.09,0,1.49-.24c.72-.45.94-2,1.69-2.51.36-.23,1.11.1,1.31-.18.66-.92-1.59-1.93-1.9-2.12-.6-.37-.78-.22-1.37-.8s-.53-1-1.27-1.51a16.58,16.58,0,0,0-2-1c-.93-.4-2.06-.06-2.92-.42C172.22,101.09,172.45,100.92,172,100Z"/><path class="cls-1" d="M114.85,69c-.18.24-.79.38-.86.69-.14.66,1.14,1.55.78,2.28s-1.84.19-2,1.7c0-.29-.3.27-.4.32-.56.33-.94-.2-1.27.36s.8,1.49-.42,1.88c1.91.13,4.64,2,4.65,4.06,0,.38-.75-.17-.62.86.08.69,1.27,1.64,1.68,2.23a4.83,4.83,0,0,1,1.07,2.26,6.11,6.11,0,0,0,0,1.34c1.13,1.12,1.61-1.32,2-1.44.72-.19,1.15,1,1.5,1.42.18.19.18.7.43.86.42.27.9-.12,1.34.16,1.12.7.17,2.24.32,3.31.23,1.68,1.91,1.32,2.94,2S128,95.75,129,96.71s1.91,1.17,2.16,2.6c.08.42-.18,1,0,1.4s1,.5,1.63.84c.48.26.62.71,1.13.9s.85,0,1.2.09c.63.26.06.07.46.82a7.7,7.7,0,0,0,1.64-1c.28-.18.83-.18,1-.47.27-.47-.18-.49-.16-.61,0,.08-.23-2.1-.23-2.32a1.54,1.54,0,0,1-.19-.8c0-.6.59-1.34.71-1.93.2-1-.51-2,.89-1.94a2.56,2.56,0,0,1,1-2,2.49,2.49,0,0,1,1.18-.76c.51,0,1.05.73,1.37.66.38-.25.1-1,.47-1.23a7,7,0,0,1,2.23-.5c1-.2-.34-.24,1.3-.34a8.84,8.84,0,0,1,1.91.24c1,.2,1.85.22,2.94.34a5.52,5.52,0,0,1,2.38,1c.09.67.43.9,1,.7l1-.08c-.86-1.81-2-2.41-2.18-4.61-.78.66-1.06-.69-1-1.3.09-.83.67-1.4.78-2.29a5.73,5.73,0,0,0-.8-3.1c-.42-.9-.51-2.13-.95-2.94-.11-.2-.65-.18-.72-.34-.31-.66-.07-1.1-.28-1.66a8.18,8.18,0,0,0-.44-1c-.13-.24-.66-.21-.74-.59-.17-.73,1-1,.65-2-.14-.35-1-.16-1.37-.65-.68-.87-1.59-.35-2.15.44.2-1.42,1.88-2.82,1.33-4.33s-1.5.21-2.39.48a6,6,0,0,1-2.88,0c-.37-.26,0-.1-.26-.54s0-1.21-.36-1.75-.38-.44-.81-.83c-.89-.81-1.32-.76-1.28-2.14-1.45.17-2.74,1.37-4.32,1.53-1.35.14-1.68-.27-2.76-.85a4.85,4.85,0,0,0-1.42-.58c-.8-.24-.64.13-1-.08s-.69-1.3-1.12-1.59-1-.15-1.49-.42c-.91-.44-.57-1.17-1-1.54-.68-.53-4.85-.4-5.58.16a14.64,14.64,0,0,0-.72,1.28c-.88,1.21-.92.68-2.2,1.22-.64.27-.86,1.18-1.6,1.48-1.11.45-2.16-1.37-2.29.3,1.48.08,1,1.9.87,2.89A3.65,3.65,0,0,1,114.85,69Z"/><path class="cls-1" d="M124.83,95.87c-.18.65,1.19,2.62,1.06-.05C125.69,95.79,124.91,95.65,124.83,95.87Z"/><path class="cls-1" d="M67.65,256.71c.24-.21,1.38.21.54-.63s-1.94.1-2.23.88a1.79,1.79,0,0,0,.91,2.35,2.6,2.6,0,0,0,1.17.16c.94-.23.71-.42.66-1.52-.32,0-.59,1-1.54.44C65.71,257.56,67.21,257.12,67.65,256.71Z"/><path class="cls-1" d="M131.07,130c-.09-.28-.68-.62-.9-1-.42-.27-.15-.59-.33-1-.83.3-.65-.24-1.47.17-1.09.53-.07,1.63-.91,2.11.45.3-.72.95-.94,1,.79.88,1.71-.11,2.69.61.33.25.33,1.21.74,1.25.9.09-.16-.41.26-.68s.88-.26,1.1-.4c0-.31-.38-.6-.42-1S131.22,130.51,131.07,130Z"/><path class="cls-1" d="M201.46,310.05c-.05.2.69,2.43.22,2.43,0,.14,0,.25.22.32C202.17,312,203.12,310.38,201.46,310.05Z"/><path class="cls-1" d="M120.77,352.61l.17.22a.36.36,0,0,0,0-.11A.47.47,0,0,0,120.77,352.61Z"/><path class="cls-1" d="M201.56,313.68a.65.65,0,0,0-.2-.66C200.09,312.94,200.63,314.16,201.56,313.68Z"/><path class="cls-1" d="M235.94,277.21l0-.38a1.57,1.57,0,0,0-1,.34c.09.37,1.38.13.21,1.16-.36.32-1.09,0-1.52.14-.62.26-.85,1.15-1.61,1a7.73,7.73,0,0,0,.88,1.24c-.92-.08-2.3.95-2.18,1.86-2,.21-3.2-.46-5.06-.69-.84-.11-1.37.28-2-.45a24.82,24.82,0,0,1-1.21-2.6c-.93.25-1.56.28-2-1.38-.11,1.61-1.32.73-1.53,2.11a11.16,11.16,0,0,0-.49-1.12,5.48,5.48,0,0,0-.17,2c-.73-.32-1.44-1.71-2.22-.84.19.16,1.64.92,1.28,1.28-.67.46-.93,1.24-1.72,1.63a4.84,4.84,0,0,1-2.55.31c0,.37.11,1-.14,1.32s-.94.09-1.06.56c-.3,1.11,1.17,1.19,1.11,2.36,0,.43-.62,0-.65.23a2.59,2.59,0,0,0,.26,1.38c-.87-.05-1.28.8-2.06.77-1-.05-1-1.28-2.05-1.25,0,.34.09.94-.11,1.11s-.64-.07-.8.09c-.36.37-.62.94-1.09,1.18-.78.39-1.36.58-1.61-.55-.06-.25.61-.47.73-.72-.76-.43-.73-2-1.85-2.47-.42.65-1.47,1.12-1.55,1.65a3.12,3.12,0,0,0,.3,1s.14.13.14.21c0,.61-.62.64-.65.95-.12,1.12.66,1,.27,2.13-.09.27,0,.77-.21,1s-.61-.1-.7,0-.19.82-.33.89c-1.53.8-1.07-.41-2.22-.81s-2,.62-2.67,1.23a1.77,1.77,0,0,1-.79.15,1.22,1.22,0,0,1-.3,1.06c-.29.26-.75.22-1,.4-.45.31-1,.62-1.45,1-1.7,1.22-1.11,3.16-1.91,4.74-.87,1.75-2.84.78-4.16,2a1.82,1.82,0,0,0-.72.18,5.52,5.52,0,0,0,.12.8c-.43.39-.52.27-1,.5a4.12,4.12,0,0,1-2.94.22c-.1.61-.78.65-.91,1-.2.57.87,1.11-.23,1.52a6.49,6.49,0,0,1-2.4-.63c-.08,0-.34.18-.46.12-.27-.13-.29-.7-.47-.75-.33-.1-.76-.42-1.1-.27s-.28.94-.63,1.19c-1,.75-.91,0-1.8-.35.35,1.08-.43.85.74,1.39.64.29,1.68.08,2.2.75a1.52,1.52,0,0,1-1.21,2.47,4.4,4.4,0,0,1-2.88-1.74c-.31-.38-.48-1-.73-1.3s-.93-.28-1.24-.94c-.47.38-1.21.49-1.64.89-.22.2-.39.7-.69,1.1,1.28.19.71.13.91,1a1.94,1.94,0,0,1-.5,2.23,3.92,3.92,0,0,1-2.17,1.15c-.7-.06-.31-.57-.68-.81s-1.28.31-1.39-.67c-.49.21-.82.81-1.33,1.06s-.59-.15-.87-.06-1.09.67-1.49.86c-.26-.05-.52-.08-.78-.11-.21.2-.41.4-.61.61-.84.15-1.36-.1-2,.42s-.64,2-.8,2.53-.31,1.52-1.12,1.88c-1.36.63-1.3-.75-2.65-.58-2.41.3-.06,4.91-2.61,2.54,0,1.28-1,1.33-2,1.07a8.4,8.4,0,0,0-3-.63c-.43,0-1,.24-1.6.28a7.81,7.81,0,0,0-1.88.08c-.37.61.67,1.39-.25,2.3.32-.31-1.91.63-1.5.61-.58,0-1.09-.45-1.52-.49-.6-.06-2,.92-2.09-.39-.7.28-.94.67-1.73.68a6.8,6.8,0,0,1-1.78-.54c-.18-.05-.31-.37-.5-.41-.69-.13-1.62.4-2.47.17,0,2.48-5.88-1.25-7.08,1.65a2.35,2.35,0,0,0-.18,1c.11.46.69.59.77.82a1.27,1.27,0,0,1-.25,1.45c0,.08-.52.14-.64.32a3.24,3.24,0,0,0-.23,1.42,3.39,3.39,0,0,0,.38,1.93c.46.69,1,.52,1.31,1.59a4.71,4.71,0,0,1-.36,3.11c-.67,1.17-1.06.74-2,.75-1.25,0-2.39.34-3.28-.91-.81,1.58.49.64.8,1.32s-.27,2.52-.3,3.4c-1-.19-1,1.95-.76,2.56a4.47,4.47,0,0,0,1.41,1.46c.48.28,1-.4,1.34.26s-1.93,1.79-.46,1.75c0,.44-.16,1.18.14,1.52-.13-.15,1.89.14,1.61.25.41-.17.22-.23.45-.37.41-.23,0-.7.84-1,.35-.14,1.22.08,1.54,0l.87-.59c0,1.11.09,1.1.71,1.78a4.77,4.77,0,0,1,0-1.68,6,6,0,0,1,1.31,1.47c.4.49,1.43,1,.94,1.82-.67,1.1-1.79-.53-2.1,1.16-.25,1.41,1.08.68,1.24,1.92a1.06,1.06,0,0,1-1.28,1c-.54-.11-.36-.7-.71-.92-.84-.51-.8-.79-1.93-.79-.35,0-.28.72-.94.42-.27-.13-.63-.88-.81-1.09s-.79-.73-1-.9a6.09,6.09,0,0,1-.44-.51c.08.32-.26.81-.12,1.09.28.58,1.23.59,1.37,1.42.2,1.24-1.11,1.19-1.1,2.45a4.53,4.53,0,0,0,1.76,0c.4-2.38-.83-2.42,1.9-1.31.68.28,2.32-.07,2.71.43s-.38,1.39.51,1.59c0-.65,2.24-.52,2.57-.59.84-.2,3.49-1.2,1.71-2.18.71-.07,2.25-.42,2.65.29,0-.37.13-1.27.93-.62.5.41-.15,1.26-.27,1.83.23-.57,1.4-.72,1.88-.42,1,.64.15,1.67.45,2.58s1.26.44,1,1.9a1.82,1.82,0,0,1,2.89,1c.14.62-.35,1.73-.07,2.34.48,1,.68.4,1.84.63,2.74.52.28,3,.75,4.38-2.61-.2-.19,1.81-1.27,2.83s-1.5-1.43-2.59-.95c.26.77,1.41-.23,1.05,1-.13.46-1.21.23-1.58.8-.66,1.05.53,2.75,1.66,2.86s2-1.33,2.72-2.14c.95-1.15.72-1.55.79-2.83.08-1.58.64-1.67,2.3-2a6.71,6.71,0,0,1,4.14.19c.59.25,2.3,1.75,2.1,0,1.13.39.78-1.48,2.07-.33.35-.77,1.14-.91,1.42-1.39s-.17-1.25-.15-1.41c.1-.86.16-1.07,1.34-1,1,0,1.76.3,1.82,1.42.12-.06.25-.82.5-.77.77.14.81.77,1.32,1,1.11.57.23.1,1-.33a3.26,3.26,0,0,1,1.85-.55c-.43-.93-.06-.72.26-1.41a10.36,10.36,0,0,1,.59-1.09.85.85,0,0,1,.73-.38c0-.27,0-.54,0-.81.43-.5-.46-.89.84-.62.58.12.75.47.83,1,1.08-.12-.19-1.09,1-.63-.21-.29-.81-5.32-.24-4.95.38.24,1,3.12,1.19,3.66.33,1,.26,1.88,1.28,2.3,0,0-.35-2.4-.39-2.69-.16-1.31-.43-2.6-.58-3.92-.13-1.16-.35-2.33-.59-3.47-.08-.38-.85-3.22-1.28-1.67-.24-.72.7-.62.92-.94a10.19,10.19,0,0,0,.92-1.73,8.77,8.77,0,0,0-.17-4.46c-.52-1.84-1.33-3.5-1.44-5.46a11.52,11.52,0,0,1,1-4.56,27,27,0,0,1,2.15-4.09,6.81,6.81,0,0,1,1.15-2.24c.76-.66,1.24-.3,2-.69,1.06-.54,1.84-1.67,3.27-1.26,1.1.31.78.45,1.07,1.51.09.31-.29,1.38.45,1.18a.78.78,0,0,1,.46-1l-.06,1.08c.78.07.61-1.38.65-1.82.19.27,1.6,2.21,1.18.66a.49.49,0,0,0,.66.25c-1.39-.4.9-2.1,1.09-2.28a12.52,12.52,0,0,0,1.56-2.73c.41-.67.56-1.32.9-2,.71-1.3,1.91-1,3.35-1.46.14-1.25-2.59.12-2.83.09.31-1.39,5.78-.63,5.88.45,0-.38,0-.77,0-1.16.52.08.34,1,.36,1.27,1.86.33,3.61-1.41,5.08-2.17.68-.34,1.66-.35,2.21-.94s.35-1.43.83-1.83c0,.52.11,1.83.44.73.14-.47-.18-1-.09-1.53-1.09.14-1.58-.39-1.37-1.36.07-.31.57-.54.72-.85s.13-1.32.28-1.79c.78-2.4,3.68-3,5.42-4.72a9.19,9.19,0,0,1,2.62-2.13c1.5-.73,3.47-1,4.75-2.06,2.26-1.79,2.87-4.54,5.4-6.32,2.16-1.52,4.73-2.56,6.81-4.12.1-.07,1.21-1.17,1.26-1.24.17-.29.29-.85.44-1.05s.23-.74.51-1.09c.13-.17,1.31-.85,1.53-1,1.7-1.27,2.53-3,3.82-4.7.66-.88,1.62-1.43,2.3-2.27C237.33,277.92,235.69,278.66,235.94,277.21Z"/><path class="cls-1" d="M119.65,352.05c0,.38.77.37,1.12.56A1.45,1.45,0,0,0,119.65,352.05Z"/><path class="cls-1" d="M304.28,173.46c0,.22,0,.35.16.42a1.19,1.19,0,0,0,1.15.53c2,0,.8-1.74.59-2.87-.07-.39-.35-.15-.1-.88a5.38,5.38,0,0,1,1-1.25c1-.54,2.55-.13,3.71-.61.24-.1.29-.4.6-.52a5.81,5.81,0,0,1,1.27-.14,5.6,5.6,0,0,1,1.59.06,15.71,15.71,0,0,0,3.64.24,6.1,6.1,0,0,1,2.7.33c.26.1.44-.07.74.1s.33.62.54.74c1.51.79.62-.49,2.07-.4-.09,2.45,1.23,2.3,2.32.95.8-1,1.74-.83,3-1.31-.67-.63-1-1.86.17-2.13s1.39,1.23,1.7,2.08c.19-.49.49-1,.64-1.45.42-1.26,0-1.64,1.31-1.72.51,0,1,.43,1.5.4s.62-.37,1-.44a28.28,28.28,0,0,1,2.87-.25c-.68.55-1.3.65-1.65,1.6,1.61.2.67,2.57.71,3.7,1.18.05,2.12-1.13,3.32-1s1.61,1.5,3.22,1.59c-1.34,2.7,1.55,2.42,2.14,4.15.46,1.33-2.66,3.09-3.75,3.48.21.16.29.26.31.35a3.57,3.57,0,0,0-.51.42,1.27,1.27,0,0,0-.61.69c-.54,1.56.94,1.23,1.42,2,.13.36.32.82,0,1.12a.2.2,0,0,1-.07.06,5.62,5.62,0,0,1-2.32-.46,2,2,0,0,0-1-.32h0v0c-.32,1,.72,1.65.53,2.68-.14.22-.43.31-.52.54,0,.07-.05.13-.07.19a.94.94,0,0,0-.2.29,2.48,2.48,0,0,0-.11.9v.06a12.8,12.8,0,0,0-.29,1.84v.13a21,21,0,0,0-.39,2.51c1-.11,2-.26,2.95-.37,0,.88-.29,1.48.52,1.64,1.29.25,1.51-1.34,1.86-1.94.05-.08.43,0,.5,0s.35-.67.23-.55a4.78,4.78,0,0,0,1.23-2.8c.55.56.88,1.31,1.55,1.31.13,0,1.39-.5,1.62-.59s.65.18.94,0a9.15,9.15,0,0,0,.83-2.8c.13-.81-.06-1.66.07-2.46,0-.4,0-.8.06-1.21h.49c.78-1.08.6,1.13,1.19-1.3a8.6,8.6,0,0,0,.14-.86,2.24,2.24,0,0,0,0-1.38l.4-.08c.49-1.26.61-3.49,2.42-3.82-.34-.83.06-2.29-.5-3-.73-.87-2.14-.33-1.17-1.63.19-.26.87-.42,1.09-.66.47-.51.36-1.17.69-1.67s1.71-1,2-1.64a.82.82,0,0,0-.16-.76c.2-.41-.7-.45.37-.61s.17.53,1,.89,1.73.72,2.46-.36c.58-.86-.15-1.56,0-2.38.08-.42.66-.64.75-1.09.21-1.14-.35-1.84.71-3.15.31-.39.85-.5,1.14-.95.48-.75,0-2.64,1.18-2.75,0,1.33.25,1.61,1.19,1.06a3.37,3.37,0,0,0,1-1.42c.63-1.3.68-1.78,2-2.63a13.4,13.4,0,0,0,3.62-2.77c.43-.5.16-.68.88-1.14s1.39-.43,2.1-1a10.09,10.09,0,0,1,1.51-1.1c.2-.11.45,0,.66-.1a11.08,11.08,0,0,0,2.3-2c.45-.7-.33-1.36.72-1.72.21-.07,1.37.33,1.78.27a7.45,7.45,0,0,0,1.25-.46c1.54-.49,3.9-1.05,3.12-3.31l-.24-.7c-.87.65-.82,1.35-1.56.6-.35-.36-.51-1.48-.67-1.85-.41-1-1.37-2.26-.75-3.57.24-.5,2-1.23,1.64-2.07-.67-1.37-4.3.1-5.08.48s-4.38,1.08-3.87,2.08l-.05,0c-1.25-.9-9.09,4.33-10.32,4.79a6.43,6.43,0,0,1-1.77.66c-.61,0-1.46-1.08-2.13-.81s-.46.48-.42,1.05c0,.4.69.9.37,1.69a7.07,7.07,0,0,1-1.57,1.67c-1.34,1.35-2.81,2.52-2.62,4.53-1,0-1.23,1.46-2.21,1.81-.54.19-1.25,0-1.82.09-.88.18-1.95.24-2.85.45-1.42.34-2,1.06-3.63.87s-2.92-1.22-4.51-.95a11.82,11.82,0,0,0-1.89.88c-1.79.85-3.6,1.11-5.46,1.79.3.82-1.15,1-2,1.08a2.65,2.65,0,0,1-.5-.08l-.22,0a.64.64,0,0,0-.69,0c-.38.28.26,1.09-.45,1.54,0-.11,0-.22-.06-.31-.08-.36-.18-.54-.29-.61s-.24,0-.39.06l-.24.17a2.19,2.19,0,0,1-.71.42,11.26,11.26,0,0,1-1.66.08,3.71,3.71,0,0,0-1,.46l-.2.07a1,1,0,0,1-.46,0,3.42,3.42,0,0,0-.05-.39.3.3,0,0,1,0-.1,1,1,0,0,0-.07-.18l0-.08a.47.47,0,0,0-.1-.1l-.05,0c-.23-.14-.57-.08-1.07.13a1.39,1.39,0,0,0-.31.2c-.46.25-.4.64-1.08.91l-.1,0a9.36,9.36,0,0,1-1.18,0h-.1l-.31,0c-1.56-.08-3.31.25-5,.22-.35,0-.7,0-1-.09l-.42-.05-.14,0-.15,0c-1.61-.53-3.79-2.7-5.4-1.59a2,2,0,0,0-.56.85,17.7,17.7,0,0,1-3.5,1.48,4.07,4.07,0,0,0-.69.18,2.36,2.36,0,0,0-1.81,2.42,6.35,6.35,0,0,0,.18,1.75c0,.32.6.17.56.51s-.48.68-.65,1a24.43,24.43,0,0,1-1.55,2.22c-.18.23-.61.21-.89.67a4.38,4.38,0,0,0-.19,1.45c.42-.27.56-1.08.9-1.4a1.24,1.24,0,0,1,.3-.13,1.1,1.1,0,0,1,.64.33,8.72,8.72,0,0,1,.51,1.9c0,.09.08.19.13.3s.07.41.1.55c.15.55.35.55.39,1.2,0,.16,0,.35-.06.53-.12.81-.36,2.18,0,1.06h0c.06.5-.08,1.21-.06,1.83A3.94,3.94,0,0,0,304.28,173.46Z"/><path class="cls-1" d="M302.85,162.37c.18-.26.84-.7.94-1,.19-.58-.17-.17-.18-.64,0-1.33-.38-2.36.22-3.71-1.62.47-3.29-.11-4.86.63a1.29,1.29,0,0,1,.53-1.07,21.47,21.47,0,0,1-2.16-.88c-1-.32-1.09,0-2.09.15-2,.41-1.66-.15-3.06-1.07-.43-.28-1-.15-1.54-.46-.83-.52-.95-1.17-1.3-2s-1.05-2.28-1.6-.64a3.88,3.88,0,0,0-.46-.91c-.65.66-1-.23-1.5-.16-1.26.17-.07,0-.76.75a2.71,2.71,0,0,1-2.87.78,24.1,24.1,0,0,1-2.62-.34c-.85-.26-1.05-1.32-1.58-1.41.14,1.07-.13,1.72.4,2.48.13.18.68.34.89.58a1.94,1.94,0,0,1,.43.83c.13.49,0,.94.17,1.44s.75.88.92,1.4c.41,1.26,0,.77-.4,1.83,1.41,1,1.07.88,1.3,2.61.21,1.53,1.06,2.6-.15,3.88-.59.63-1.25,1.11-1.82,1.78-.11.12-.79.52-1,.69s-.28.87-.46,1.07a6.86,6.86,0,0,1-1.11,0,2,2,0,0,1-.13.81,2.4,2.4,0,0,0-.51,1.39c.1.45,1.08,1.21,1.43,1.44.78.51,1.42.43,1.93,1.51a9.86,9.86,0,0,1,.62,3.06c-1.28.18-1.33-.68-2.46,0s.91,1-1.41,1c.15.55,1.6,2.37,1.59,2.63,0,.77-1.3,1.08-1.15,1.84.06.32,1.2,1,1.42,1.51a4.88,4.88,0,0,1,.13,2.93c-.23.89.11.85-.65,1.21-.08.73,2.12,1.61,1.12,3-.46.64-1.48-.23-1.72.95,0,.14.54.54.62,1,.27,1.49-1,2.82-2.12,3.46a1.58,1.58,0,0,1,.81,1.21c-.82,0-1.68,0-1.28,1-1.46-1.27-1.18.44-1.48,1.14-.2.46.18.55-.27.71-.83.32-1.72-1-2.72-1,.77.86.58,3.3-1,2.79.51,1.95-1.93.38-2.73.4-1.06,0-1-.09-1,1.25-.83-1.17-.65-.28-1.09.18-.61.64-.21.83-1.21,1.23a12.92,12.92,0,0,0-3.09,1.31,6.32,6.32,0,0,0-1.64,1.67c-.49.63-.15.77-1,1a2.32,2.32,0,0,1-2-.52c-.92-.73,0-1.5-1.7-1.17.45,1.79-.14,1.3-1.86,1.33.82,1.75-.73,2.08-.76,3.58,1-.06.67.65,1.09.78s.92-.21,1.3,0c.62.3.6.54,1.13.87.19.12,1.21.68,1.46.81,1.05.57.18.34,1.27.66-.06,0,1.42.19,1.31.18.59,0,2.75-.38,2.5.87-.15.77-1.32.21-1.17,1.6.19,1.81,2.9,1.35,2.65,3.13,1.09-.17,3.13,1.75,1.82,2.65,1.07.66.58.92,1.13,1.67.26.35.85.49,1.21.87-1.42.09-2.78,1.23-1.12,2.11.79.43,1.7-.08,2.32.91.23.37-.09,3.27.93,3-.62-.22.73-.71.59-.59.79-.67,1-2,2.13-.35.36.49.2,1.13.63,1.57a6.92,6.92,0,0,0,1.75.78c1,.49,1.88,1,1.81,2.27.68-.59,1.44-.51,2.13-.93s.64-.65,1.06-1.25a17.68,17.68,0,0,1,2.23-2.75,11.91,11.91,0,0,1,1.51-1.44c1.72-1.13.94-1.6.44-3.45,1.3-.38,1.57,1.38,1.37,2.29-.32,1.48-.61,1.12-.1,2.58,0,.08.43,1.43.37,1.39.87.64,1.34-1.59,2.57-1.44a.53.53,0,0,1,.22.69c.63.24.88.06.75-.52.42-.16.26-.53,1.08-.59-.31-.94-.22-2.4.45-2.93.25-.19,1,0,1.31-.1a7.59,7.59,0,0,0,1-1c.31-.36.72-1.29,1.12-1.47,1.21-.54,2.34,1.29,3.08,1.84-.21-1.1-1-1.86-1.36-2.88a18.88,18.88,0,0,1-.3-2.35c-.34-1.61-1.18-3.2-1.2-4.76,0-.79.22-1.11-.17-1.92-.24-.49-.76-.63-.89-1.07-.23-.77.55-3.64,1.65-3.34-1.19-.71-1.89-.17-2.94-.13s-1.1-.08-1-1.57c0-.57.83-2.1.59-2.57s-1.84-1.15-2.36-1.65c-.81-.79-.33,1.14-.89-.93a4.59,4.59,0,0,1,0-2.15c.42-1.08,1.12-.91,1.76-1.81a4.32,4.32,0,0,0,.58-4.1c-.6-1.12-1.74-1.08-3-1.36a5.46,5.46,0,0,1,2.38.27s.1.1.13.11c-.62-.93-2.36-.92-3.37-1.12a12.46,12.46,0,0,1-1.76-.35c-.68-.29-.24-.4-.81-.74a9.05,9.05,0,0,1-2.06-1.14,13.78,13.78,0,0,1-1.56-2c-.24-.84.67-2.86,1.08-3.86.25-.6.31-1.45,1.5-.92.83.37.18,1.18,1.44,1a.85.85,0,0,1-.53-1c1.4-.08.56-.08,1.22-.83.39-.45.67-.37.84-.9.39-1.16-.91-1.43.44-2.13a7,7,0,0,1,2.24-.19c1.88-.06,4.8.19,4.1-2.89-1.07-.21-.29,1.25-1.68.45-.67-.39-1.24-2-1.47-2.76a2.85,2.85,0,0,1-4.36-.25c-.89-1.22-.43-2-2.18-2.82-1.53-.7-3,.24-2.68-2,.07-.55.38-1,.47-1.48.5-.07.6-.32.31-.77a.85.85,0,0,1-.23-.83c.16-1,.89-1,1.58-1.59s.65-1,1.1-1.35,1.64-1.06,1.48-1.62c-.25-.87-.65-.25-1.15-.75-.67-.67-1.47-2.3.12-2.05-.31,0,1.26,1.16,1.11,1,.73.61.49.72,1.76.81-.42,1.59.72.14,1.23,1.17.43.87-.62,1.52-.55,2.31a3.58,3.58,0,0,0,1.08-.07,5.75,5.75,0,0,0,.08,1.55c.18-1,.23-3.39,1.14-1.74.78-1.61.78-.25,2.58-.4-.31-.4-2-2.29-1.73-2.83.42-.79,1.93.16,2.28.6,1.15,1.42.43,3,2.27,4.2a6.68,6.68,0,0,0,2.82,1.17c1.35.17,1.26.09,1.82-.84s.41-2.81,1.21-3.5A5.23,5.23,0,0,0,302.85,162.37Z"/><path class="cls-1" d="M340.62,199.66A6.68,6.68,0,0,0,341,197c0-.63-.34-3.44-.88-3.71q.3,0,.33-.27l-.55.11a6.77,6.77,0,0,1,0-.9l-1.73.21a11.05,11.05,0,0,0,.08-3.05c-.32.33-.47.83-.68,1a7.86,7.86,0,0,0-.95.5c-.91.75-1.09,1.93-1.95,2.67-2.15-2.07-2.75.84-5,1.42-1.41.36-2.39,0-3.11,1.57-.46,1-.71,2.62-1.07,3.72-.52,1.61-.32,2.11.53,3.46,1,1.56.77,2.55,1.29,4.25.19.6.59,3.84,1.19,4.1,1.55.66,1-1.69.87-2.32s-.79-2.94.55-2.12c.92.56.55,2.12,1,3,.23.47,1.69,2.37,2.25,2.32.73-.07,2.2-2.8,2.27-3.34.14-1.24-1.47-2.8-.69-4,.25-.38,1.11-.09,1.26-.37.3-.57,0-.83.1-1.54a6.23,6.23,0,0,1,.38-2c.36-.33.63.08,1-.16l.45.08a2.79,2.79,0,0,1,.54-.95c.54-.2.53-1,1,.15C339.6,199.87,340.38,200.11,340.62,199.66Z"/><path class="cls-1" d="M355,193.09c-.84-.17-3.79-.73-4.17-1.3-.48-.73.34-1.56-.53-2.32a1.91,1.91,0,0,0-1.82-.3c-1.19.88-1.35.57-2.09-.28-.18.78-.58.94-1.17,1.41-.07,0,.16,1.15.11,1.26s-.69,0-.78.1a7.53,7.53,0,0,1-.64,1.15,2.54,2.54,0,0,1-2.21.84c-.74-.26-.54-.59-.53-1.59-1.36.18-.23,1.42,0,2.45a12.15,12.15,0,0,1,.27,4.09c-.19,1.46.24,2.1.47,3.5.11.68-.23,1.15,0,1.83.44,1.08.83.65,1,2,.16,1.72-.24,3.11.28,4.81s1.39,2.8,2,4.31a25,25,0,0,1,1.52,4.22c.29,1.58-.25,4,.92,5.32,1.69,1.87,0-3.24,2.36-.82.66.68,1.24,3,2.68,2,.63-.44.85-2.38,1.31-2.9.73-.81,1.18-.23,1.83-.89a5.84,5.84,0,0,0,.39-2.45c-.12-.88-.88-1.49-1.23-2.41-.53-1.42-.3-3.57-.26-5-.77.38-1.53-1.15-1.11-1.67.21-.27,1.71.1,2.12,0,1.72-.47,2.05-3.28,2.17-5a16.75,16.75,0,0,0-.86-7C356.71,197.8,354.32,193.45,355,193.09Z"/><path class="cls-1" d="M371.36,174.75c-.54-.69,0-3.7.7-4.1-1.5-.63-1.27-2.11-1.24-3.43-2.19,0-1.29,2.21-2.83,2.9s-3.88-.09-5.61.06c-1.3.11-1,0-1.53,1.1a17.43,17.43,0,0,1-1.52,3c-.58.77-.81,1.09-1.76,1.19s-1.83-.75-2.5,0c-1,.72-.9,2.14-1.29,3.22-.26.7-.3,2.44-.75,3.21s-.79.22-1.26.69-.28,1.32-.33,2.12-.3,3.94-1,4.28c1.12.45.57,1.07.94,1.84s.05.4,1,.89c1.22.63,2.56.71,3.65,1.42.41.28.53.82,1.17,1.07s3.11.36,3.15-1c.63.21,1,1.2,1.64,1.3,1,.18.47-.56,1.27-.6a8.57,8.57,0,0,1,2.33.66c.18.13.71,1.51,1.22,1.37.92-.24,1.14-4.09,1.26-4.73a24.33,24.33,0,0,1,1.66-5.19,42,42,0,0,1,2-4.08c1-1.73,2.32-3.11,2.19-5.24C373.79,174.05,372.61,176.37,371.36,174.75Z"/><path class="cls-1" d="M376.5,156.93c0-.24-.05-.47-.07-.7a18.56,18.56,0,0,0-4.54-2,8.11,8.11,0,0,0-2.73-.22c-1.29.15-1-.24-1.36,1-.23.93-2.32,3-2.95,1.32-.17,1.57-.94,1.81-1.69,2.85a5.91,5.91,0,0,0-.81,3.32c0,.21-.39.32-.43.51-.13.53.36,1.22.18,1.86-.39,1.4-2.53,2.49-3.6,1.08-.4.65-1.06.86-1.55,1.36-.82.84-.53.89-1.1,1.94-.43.8-.85.89-1.72,1.34.53,1,1.23.4,1.7,1.69.25.69-.23,1.62.3,2.26,2.41,2.89,3.79-3.47,4.4-4.28,1.15-1.53,5.1-.1,6.75-.48,1.87-.42.73-1,1.54-2.19a2.84,2.84,0,0,1,2.35-.84c.61.29-.07,1.66.2,2.3.66,1.64,2,1.65,2.92.32s.1-2.17.36-3.63,1.24-2.25,1.84-3.32a7.89,7.89,0,0,0,1-3.62,3.47,3.47,0,0,0-.38-1.79A1.67,1.67,0,0,0,376.5,156.93Z"/><path class="cls-1" d="M327.73,179.59c.61.08,2.62.54,2.82-.26-.29,1.19,5.51-.47,5.92-.47a4,4,0,0,1,1.67.25c.48.21.85.92,1.22,1.06,1.4.51,1.71-.42,2.56-1l-.52-.37a5.7,5.7,0,0,1,.9-.33c.93-.33,3.8-2,3.43-3-.2-.52-1.7-.81-2.08-1.38-.47-.72,0-1.34-.28-2a4.57,4.57,0,0,0-2.72-1.82c-1.22-.08-2.29,1-3.6,1-.07-1.59,1.05-3.61-.91-3.94.23-.35.34-.78.55-1.15-.54,0-1.09.31-1.52.34a9.2,9.2,0,0,1-2.59-.4c.15,1.2-1,3-1.46,4.16-.5-1.36-.56-3.74-2.17-2.38.15-.07,1.15,1.23,1.22,1.31-1.47.42-2.65.41-3.5,1.44-.09.1-.91,1.15-.93,1.15a1.72,1.72,0,0,1-2.36-1.4c-1.07,1.21-1.56-.57-2.13-.88a7.14,7.14,0,0,0-3.23-.5c-2.22.16-4.48-.82-6.61-.14-.73.23-1.24.85-2.22,1-.46.07-1.14-.15-1.57,0a2,2,0,0,0-1,1.49c0,1.13,1.39,2.2.25,3.33-.46.46-2.18.61-2.56,0,0,1-.18,3,.92,3.52.81.4,2.15-.06,3.12.29a16.64,16.64,0,0,0,7.47,1.2c1.68-.15,3.32-.17,5-.27,1.38-.08,2.65.23,4,.12A11.44,11.44,0,0,1,327.73,179.59Z"/><path class="cls-1" d="M404.8,127.36c0-.41-.78-1.12-.93-1.57-.35-1-.06-.93-.79-1.75a6.43,6.43,0,0,0-1.57-1.51c-1-.43-1.41.16-2.36.24a10.11,10.11,0,0,1-4.27-.58c-2-.74-3.42-.21-4.22,1.78a5.81,5.81,0,0,0-1.85-.28c-.18-.83.62-.6.77-1.18s-.27-.51-.17-.82c.35-1.08.69-1.08,1.28-2,.17-.3-.21-.69.08-1.13s.8-.4,1-.75.73-.78.58-1.19-.81-.51-1-.73a10.4,10.4,0,0,1-1.09-1.56c-.65-1,.46-1-.88-1.21a2.43,2.43,0,0,0-1.68.79c-.33.39-.35,2.39-1.1,2.07-1.27-.55,1-2-1.34-2.14.07-1,3.18-2.79,2.75-3.43s-.89,0-1.48-.17-.57-.58-1-1-1.5-1.93-1.87-2c0,1.21-2.6,2.31-3.43,2.8s-2.23,1-2.68,1.8.47,1.41-.77,1.5c.61,1-.3,1.62-1.13,1.79-1.35.27-2.35-.91-3.63-1.12s-2.41.42-3.6,0-2.14-2-3.71-1.87c-.1,1.89-1.29,1.23-2.63,2a8.05,8.05,0,0,0-2.58,2.77c-.18.3-.13,1-.43,1.25s-.73.06-.85.18-.57.39-.59.41.29.74.22.88c-.2.44-.85.44-1.19.7s-.43.58-.82.9a17.36,17.36,0,0,1-2.11,1.77c-.57.3-1.06.1-1.64.23-.95.21-1.78.9-2.72,1.16-1.76.48-1.86,0-2.2,1.75a6.69,6.69,0,0,1-2.88,4.54c-.88.66-3.79,2-3.55,3.43.11.69,1.42.34.87,1.52-.26.55-1.56,1-2.05,1.31-.87.63-.58.78-2,.9-.38,0-.64.51-1,.52-.75,0,.15-.86-1.24-.62,1.29.56-1.37,1-1.5,1-.43.22-.69.7-1,.88-1.35.74-2.6-.27-4.24.05-1.94.38-.58-.09-1.11,1.06s-.41.52,0,1.72c.46,1.41,1.52,1.46,2.2,2.71.39-.68,2.92-1.2,3.5-1,.06,0,1.11,1.44,1.13,1.47.41.91.21.41,0,1.08s-1.05,1.24-1,2.13.62.7,1,1.23,1,1.05,1,2.12c.25,0-.25-.46.33-.55a14.57,14.57,0,0,0,2.11-.48,23.28,23.28,0,0,0,3.47-1.35,6.75,6.75,0,0,1,5.59-.33c2.38.69,2.91-.3,5.18-.54a19.23,19.23,0,0,0,3.38-.47,3.34,3.34,0,0,0,2.3-2.18,12.6,12.6,0,0,1,2.46-3.63,14.44,14.44,0,0,0,1.41-1.41,1.53,1.53,0,0,0,.38-1.55c-.08-.62-.86-1.34.17-1.92.48-.27,1.06.06,1.54.17,1,.24.87.34,1.9.12,1.85-.41,3.42-1.62,5.12-2.59,2.88-1.64,5.85-2.59,8.77-4,1.28-.64,7.51-3.11,6.7.26-.4,1.66-2.39,1.45-1.52,3.64.26.66.76.7,1,1.19s.15,1.24.35,1.7a7.5,7.5,0,0,1,1.34-1.24c1.21,3.52-.72,5.27-4.23,5.86-.38.06-1.9-.35-2-.24s-.11,1.24-.36,1.61a10.8,10.8,0,0,1-2.15,1.89c-.53.29-1.06.35-1.54.62s-.91,1.05-1.51,1.36-1.29.14-1.71.45-.66,1.12-1,1.56c-1.23,1.5-3.39,1.81-4.53,3.3a14.74,14.74,0,0,1,4.19.36c1.36.42,2.38,1.45,3.74,1.84-.39-1.09.6-2.43,1.3-3.21a5.82,5.82,0,0,1,1.48-1.1,3.6,3.6,0,0,0,.8-.06c.35,0,.49-.19.4-.65,1-.88,1.33-1.81,2.4-2.56.31-.22.79-.28,1.11-.52.54-.4.64-1.15,1.14-1.57.69-.56,1.43-.62,2-1.25,1-1,1-2.5,2.38-3.38a10.67,10.67,0,0,1,3-.89,5.5,5.5,0,0,0,3-2c.26,1.16,1.94,0,2.6.19a11.29,11.29,0,0,1,1.1.77,1.66,1.66,0,0,1,.21,1c-.12.47.12.63.74.49.83.57,3.11,1.73,3.06,0,0-1-1.82-2.28-2.52-2.95-1.29-1.21-2.21-2.76-1.18-4.37.57-.89,1.41-1.39,2-2.24.22-.3.52-1.31.7-1.48.8-.76,1.65-.45,2.61-.51C404.55,129,404.22,127.42,404.8,127.36Z"/><path class="cls-1" d="M344.5,191.15h0S344.48,191.19,344.5,191.15Z"/><path class="cls-1" d="M76.45,17.1c.38,0,1-.52,1.45-.62.08,0,1.43-.13,1.77-.12a7.27,7.27,0,0,0,1.69.43c.69.47.42,1.81.8,2.35a7.73,7.73,0,0,0,2.18,1.6,4,4,0,0,1,1,.15,9.93,9.93,0,0,1,.72.73c1,.45,2.32-.07,3.24.37,1.74.83-.12,1.5-.47,2.57-.5,1.57,1,1.89,2,2.51.62.41,1.57.69,2,1,.77.56.75-.21,1,1,.19,1-1.1,3-1.84,3.47s-2.68.3-3.36,1,0,2.57-1.13,3.22c-1.54.94-2.26-1.18-3,1.19a8.49,8.49,0,0,0,.19,4.24,37.88,37.88,0,0,1,.89,9c-.07,1.42.2,2.93.1,4.31-.09,1.22.3,2.4.13,3.8,1,0,1,.33,1.72.78l0,.6.84,0c1.19.45,2.07.18,3.14,1.06s1.86,1.07,2.62,1.84c.24.24.09.84.41,1.08.7.52.82-.26,1.51-.18a1.13,1.13,0,0,1-.34-.87c0-.76-.59-.54-.8-1.11-.45-1.14,0-1.05-.72-1.82-.29-.29-.91-.48-1.25-.79a13.2,13.2,0,0,1-1.45-1.72c-1.45-1.86-.61-1.22.59-2.85a1.69,1.69,0,0,0,.31-2c-.45-1.15-1.51-1.22-2-2.2-.9-1.75.89-2.45,2.08-3.09S95.16,47,94,45.85s-4.56.87-4.26-1.79c.09-.88,1.11-1.26,1.23-1.83s-.5-.92-.51-1.71A1.51,1.51,0,0,1,88.2,40c-.49-1.3,1.11-1.41,1.82-2.11s.38-1.63.81-2.43c.74-1.39,1.65-.51,2.79-.72s1.6-1.42,2.77-1.54a13.64,13.64,0,0,1,2.13.22c1.14.21,1.44.86,2.22,1.29.25.14,1.84.82,1.85.82,1.6,0,5.35-.12,6.27.77.47.44.37.9,1.24,1.18s2.11.15,3,.36c.45.09.85.39,1.33.33,1.27-.16,2.1-1.95,3.18-2.35,1.29-.47.73.12,1.67.13.19.6.57.57,1.12-.09q.48-.23,1-.42a9.62,9.62,0,0,1,3.1-.51c2.91-.12,1-1.07,2.88-2.46.83-.61,3.55.24,3.79-.87.16-.78-1.72-3.26-2.11-4-.75-1.34-3.43-4.2-2.67-5.82s1.43.16,2.35.75c.24.15,1.37.84,1.53.89s.74,0,1,.12a1.1,1.1,0,0,1,.92.09,1.23,1.23,0,0,1,.35.64c1.07.56-1.14.92,1.29.58a2.34,2.34,0,0,0,1.65-1.11l.14.36c1.32-1.13,2.3-.76,1.08-2.06-1-1.07-1.88-.64-3.1-1.32-.78-.43-.53-.81-1.57-1.05-.57-.13-1.23.17-1.82.05-2.09-.43-1.77-1.83-2.2-3.51-.57-2.21-1.67-1.36-3.18-2.33-.58-.37-.52-.78-1-1.23-.83-.87-.77-.64-1.83-1-.72-.25-.93-.11-1.66-.64a12.08,12.08,0,0,1-1.73-1.56c-1-1.22-1.07-2.94-2.27-4.09a2.8,2.8,0,0,0-2.13-1c-.41,0-1.16.83-1.38.81-2.09-.15-.21-2.37-1-3.38-.47-.6-2.9-.67-3.71-.81s-2.17.46-3,.31c-1.22-.22-1.37-1.7-3-1.2-.66.21-.62.77-1.36.87a11.19,11.19,0,0,0-2.71.33c-.66.23-1.68.3-2.29.57.15.81-.17,1.08-1,.79a8.49,8.49,0,0,1-1.41-.33c-1.11-.27-3-1.1-4-.48,1,.53,4,1.22,2.2,2.47-1.25.86-3.34-.06-4.59-.25-1.89-.28-3.63-.18-5,1-.43.39-.73,1.4-1.13,1.83.1.77-.21,1-.92.83-.54-.23-.79-.14-.75.28-.13.07-.82,1-1.06,1.22s-1.17,1.4-1.25,1.44c-1.29.68-1.28-.5-2,1.32a3,3,0,0,0-.25,1.53c0,.35-.25,1.69-.22,1.8C74.62,15.92,76.5,16.05,76.45,17.1Z"/><path class="cls-1" d="M134.78,25.19c-.32.06-.71.17-1.05.23-1,.17-1-.1-1.55-.47s-.1-.65-.6-.87c-.3-.13-.74.21-1.07.08S127,21.62,127,21.62c-1.25.66,3.35,7.36,3.71,8,.56,1.05,1.64,2.3,0,2.94-.9.36-2.05-.51-3.08.31-.79.63-.38,1.57-1,2.18-.86.84-3.31.14-4.49.47-.59.17-1.19.79-1.82.95l-.38.21c-.68.43-1,.31-1-.34-.32,0-.41-.23-.78-.22-.68,0-2,1.57-2.58,1.92a2.71,2.71,0,0,1-2,.51,24.4,24.4,0,0,1-3.85-.59c-1.15-.34-1.23-1.56-2.09-1.78a13.4,13.4,0,0,0-1.83.17c-.69,0-1.34-.23-2-.3a10.44,10.44,0,0,1-1.78-.39c-1.94-.55-2.9-1.93-5.06-1.83a3.77,3.77,0,0,0-2.1.68c-.51.29-.6.59-1.24.71-.43.07-1.13-.3-1.43-.21-1.38.39-.94,2.35-1.94,3.27-.46.42-1.83.75-1.74,1.39s1.28.42,1.49.47c.82.2,0-.59.84,0,.08.06,0,.71,0,.8.66,1.47.37.95-.49,2.33C88.8,46,92.84,44.45,94,45a4.38,4.38,0,0,1,1.07,1.47c0,.9-1.26,1.18-1.89,1.52s-2.26,1-2.5,1.76c-.45,1.37,1.42,1.79,2,2.72,1.68,2.77-1.84,3.09-1.56,4.77A23.77,23.77,0,0,0,93,59.35c.51.52,1.72.68,2.1,1.21s0,.85.17,1.34.65.77.88,1.1c.64.92.45,2,2.2,1.89.07-.8,0-1.27,1-1.18a17.52,17.52,0,0,1-.28,3.48c-.09.66-.81,1.12,0,2a2,2,0,0,1,1.89-.51c1,.17.76.76,1.52,1,1,.28,1.11-.6,2.19-.07.22.12.25.73.33.78.24.12.65-.16.9,0,.41.23,1.17.82,1.57,1a18.49,18.49,0,0,0,2.26.46c.21-.08.48-1,.63-1,.47-.2,1.53-.19,2.07-.45,0,0,.72-.8.81-.88s.49-.28.72-.46a3.61,3.61,0,0,0,1.12-3.19c-.08-1.57-.63-.69-1-1.43a1.49,1.49,0,0,1,.67-1.74c1-.34.75.79,1.62.76.43,0,.93-1.1,1.16-1.29s0-.35.33-.49c.8-.36,1.44.27,2.18-.39.36-.31.42-1.19.79-1.61a2.14,2.14,0,0,1,1.73-.81c1-.12,4.15-.38,4.85.19.32.26,0,1,.3,1.25s.91.16,1.36.39c.89.45,1.23,1.59,2,2,.63.33,1.51.12,2.24.53s.85.82,1.74.92c1.86.19,3-1.3,4.6-1.47s.51.16,1.08,1.28c.86,1.69,2.42,1.46,2.4,3.88a9.83,9.83,0,0,0,2.21.09c.41-.11.94-.7,1.37-.88,2.65-1.1,1.91,2,1.49,3.69,1,0,1,1,1.92,1-.2-.48-1.28-.9-1.33-1.18s1.1-1.12,1.29-1.23c.57-.33,1.3-.34,1.83-.64s1-1.1,1.42-1c.07.94-.46,2-.24,2.92.83-.05,1.11.35.83,1.18l.55.15A5,5,0,0,0,155.78,73c.94.32.21.23.75,0,.35-.12,1-1.16,1.28-1.36s1-.42,1.19-.55c.52-.43.63-1.37,1.45-1.86.11,2.05,1.94-.66,2.16-.85.94-.85,2-.86.85-2.5-.7-1-2.2-2.31-2.44-3.49s1.46-2.39.79-3.32c-.56-.77-2.14-.37-2.91-.57a9.69,9.69,0,0,1-3.11-1.31,6.67,6.67,0,0,0-.56-1.08c-.28-.4-.65-.9-1-1.38a5.12,5.12,0,0,1-1.1-2.24c0-.46.66-.64.7-1.11.05-.77-.42-1.26-.53-2-.13-.91.46-1.21.52-1.9.07-.85-.84-1-.36-1.8.17-.29,1.66-.27,1.88-.38a3.92,3.92,0,0,0,1.09-1.06c1-1.57,0-2.43-1.41-3.2-.41-.23-1.13-.33-1.46-.66-.48-.48-.23-1-.83-1.4-.86-.63-1.94.07-2.79-.32-.62-.29-.58-.64-1.17-1.17-.24-.22-.82-.26-1.15-.55-.66-.58-.31-.44-.72-1.27A16.57,16.57,0,0,1,145.35,32c-.11-.67.36-1,.24-1.71,0,.11-.72-.72-.74-.78a4,4,0,0,1-.24-3.25c.75.73,0,3.81,1.56,3.49a9.22,9.22,0,0,0,1.3,6.32,7.54,7.54,0,0,0,2.42,1.65c-.11.49.09.65.59.48l1.16,0a3.67,3.67,0,0,1,1.92.72c.08.07.14.23.21.28a9.21,9.21,0,0,0,.2.91,2.5,2.5,0,0,0,.89.28c1.24.88,3.31,1.81,2.43,3.81a3.89,3.89,0,0,1-1.4,1.2c-.42.25-1.8.44-2.12.76,1.43.51.2,1.33.09,2.18s.35,1.39.43,2.24-.6,1.45-.57,1.88a6,6,0,0,0,2.47,3.8,12.78,12.78,0,0,1-.33-3c.27-.3,1.12,0,1.44-.16.66-.36.48.53.63-.61.07-.52-1-2.48-1.18-3.08-.55-1.67-1-2.53,1-2.7a15,15,0,0,1,1.92.35c1,.09,1.94,0,2.93.09-.19-1.59,1.17-1.43,1.48-3.11a4,4,0,0,0-.62-3.33,15.25,15.25,0,0,0,2.69-.26c1.07-.44.4-1,1.06-2,.83-1.24,2.18-.61,3.12-1.23.47-.31.78-2,1.2-2.84.73-1.48.4-2.94,1.05-4.36.21-.46.58-.44.76-1a6.28,6.28,0,0,0,0-1.37c.05-.74.92-2.11.61-2.72-.48-1-.9-1-1.64-1.51a6.61,6.61,0,0,1-1.5-1.45c-1.42-1.66-2.82-.67-4.77-1.24a24,24,0,0,1-2.7-1.06c-.31-.13-1-.1-1.22-.28s0-.73-.29-.87c-2-.85-2,1.42-3.64,1.58-2.06.19-3.5-.72-5.55.13-1.42.6-3,1.1-4.37,1.66a14.5,14.5,0,0,0-1.55.82c-.52.3-.1.46-.77.64s-1.16-.22-1.71-.07c-1.21.33-1.41.94-1.41,2.09,2.75-2,3.39,1.1,1.89.84a1.83,1.83,0,0,1,.52-.56c.07-1.21-2.53.5-2.9.41-.13-2.13-1.06-1.54-2.83-1.36-.88.09-1.92.07-2.8.08A7.7,7.7,0,0,0,134.78,25.19Z"/><path class="cls-1" d="M233.11,425.05a7.62,7.62,0,0,0,0,1.17c.65.09.63-.55.72-.81C233.83,425.37,233.48,424.91,233.11,425.05Z"/><path class="cls-1" d="M343.2,418.42l-.62.16c-.91.33-.87,0-1.12-.68-.72.62-.63-.62-1.33-.45,0,.07,1,1.77-.37,1.87.27.12,1.47,1.49,1.59,1.42a2.23,2.23,0,0,0,0-.44C343.35,421.33,342.27,420.57,343.2,418.42Z"/><path class="cls-1" d="M343,433.51a.84.84,0,0,0-1.07.17c-.66.63,0,.66.33,1.1a7.47,7.47,0,0,0,1.15.92C343.37,435.24,343.54,433.81,343,433.51Z"/><path class="cls-1" d="M276.1,420.65c.36.42.52.79,1,.36l.27-.28A2.88,2.88,0,0,0,276.1,420.65Z"/><path class="cls-1" d="M224.31,431.51c.3.2.22,0,.17-.45-1-.19-.59,1,.09,1.08A.52.52,0,0,0,224.31,431.51Z"/><path class="cls-1" d="M224.16,442.59a1.09,1.09,0,0,0,.62-.09A.34.34,0,0,0,224.16,442.59Z"/><path class="cls-1" d="M230.2,436.78a9.54,9.54,0,0,0-.14,1.09C230,438.36,232.3,436.78,230.2,436.78Z"/><path class="cls-1" d="M233.75,418.53a2.1,2.1,0,0,0,.08-.54h-.4A.38.38,0,0,0,233.75,418.53Z"/><path class="cls-1" d="M219,415.56c-.09.3.59.76.83.69C220,415.67,219.23,415,219,415.56Z"/><path class="cls-1" d="M237.92,422.13a.93.93,0,0,0,.7-.16C238.81,421.12,237.94,422.1,237.92,422.13Z"/><path class="cls-1" d="M216.23,419.45a.83.83,0,0,0,.45.5,1.82,1.82,0,0,1-.15-.5Q216.38,419.19,216.23,419.45Z"/><path class="cls-1" d="M235.63,471.85c0-.24,0-.49,0-.73-.8-.23-.48,1.67-.66,1.67.69,0,1-.38.9-1.08Z"/><path class="cls-1" d="M224.49,418.76c-.19.79-.49,1.19.28,1.19A.82.82,0,0,0,224.49,418.76Z"/><path class="cls-1" d="M223.39,443.56c-.2.09.43.43.45.23S223.64,443.45,223.39,443.56Z"/><path class="cls-1" d="M226.24,429.35c-.32.23.11.54.37.48S226.58,429.11,226.24,429.35Z"/><path class="cls-1" d="M230.5,431.87s-.23-.48-.59-.45C229.89,431.93,230,431.9,230.5,431.87Z"/><path class="cls-1" d="M220.45,407.52c0,.11-.08.22-.13.34h.4Q220.4,407.79,220.45,407.52Z"/><path class="cls-1" d="M221,408.94a.38.38,0,0,0,.36-.4C221.12,408.49,221,408.62,221,408.94Z"/><path class="cls-1" d="M246.58,443.26h0C246.59,443.13,246.59,443.16,246.58,443.26Z"/><path class="cls-1" d="M246.4,444.93c.12.15.17-1.3.18-1.67C246.33,443.7,246,444.46,246.4,444.93Z"/><path class="cls-1" d="M222.83,425.64c-.2.18.09,1,.53.52C223.58,425.85,223.17,425.34,222.83,425.64Z"/><path class="cls-1" d="M223.48,426a.65.65,0,0,1-.12.15l0,0Z"/></g></g></svg>